<?xml version="1.0" encoding="UTF-8" standalone="no"?>
<!DOCTYPE svg PUBLIC "-//W3C//DTD SVG 1.1//EN"
 "http://www.w3.org/Graphics/SVG/1.1/DTD/svg11.dtd">
<!-- Generated by graphviz version 2.40.1 (20161225.0304)
 -->
<!-- Title: dependencies Pages: 1 -->
<svg width="504pt" height="284pt"
 viewBox="0.00 0.00 504.00 284.00" xmlns="http://www.w3.org/2000/svg" xmlns:xlink="http://www.w3.org/1999/xlink">
<g id="graph0" class="graph" transform="scale(1 1) rotate(0) translate(4 280)">
<title>dependencies</title>
<polygon fill="#ffffff" stroke="transparent" points="-4,4 -4,-280 500,-280 500,4 -4,4"/>
<text text-anchor="start" x="227.0091" y="-42.4" font-family="sans-serif" font-weight="bold" font-size="14.00" fill="#000000">Legend</text>
<polygon fill="#ffffb3" stroke="transparent" points="14,-10 14,-30 34,-30 34,-10 14,-10"/>
<text text-anchor="start" x="37.629" y="-15.4" font-family="sans-serif" font-size="14.00" fill="#000000"> &#160;Declarations</text>
<polygon fill="#8dd3c7" stroke="transparent" points="127,-10 127,-30 147,-30 147,-10 127,-10"/>
<text text-anchor="start" x="150.7251" y="-15.4" font-family="sans-serif" font-size="14.00" fill="#000000"> &#160;Module</text>
<polygon fill="#80b1d3" stroke="transparent" points="213,-10 213,-30 233,-30 233,-10 213,-10"/>
<text text-anchor="start" x="236.7812" y="-15.4" font-family="sans-serif" font-size="14.00" fill="#000000"> &#160;Bootstrap</text>
<polygon fill="#fdb462" stroke="transparent" points="310,-10 310,-30 330,-30 330,-10 310,-10"/>
<text text-anchor="start" x="333.6732" y="-15.4" font-family="sans-serif" font-size="14.00" fill="#000000"> &#160;Providers</text>
<polygon fill="#fb8072" stroke="transparent" points="406,-10 406,-30 426,-30 426,-10 406,-10"/>
<text text-anchor="start" x="429.7258" y="-15.4" font-family="sans-serif" font-size="14.00" fill="#000000"> &#160;Exports</text>
<g id="clust1" class="cluster">
<title>cluster_UserModule</title>
<polygon fill="none" stroke="#000000" stroke-dasharray="1,5" points="16,-70 16,-268 480,-268 480,-70 16,-70"/>
</g>
<g id="clust2" class="cluster">
<title>cluster_UserModule_declarations</title>
<polygon fill="none" stroke="#000000" points="304,-78 304,-130 472,-130 472,-78 304,-78"/>
</g>
<g id="clust4" class="cluster">
<title>cluster_UserModule_imports</title>
<polygon fill="none" stroke="#000000" points="24,-78 24,-130 296,-130 296,-78 24,-78"/>
</g>
<g id="clust5" class="cluster">
<title>cluster_UserModule_exports</title>
<polygon fill="none" stroke="#000000" points="150,-208 150,-260 320,-260 320,-208 150,-208"/>
</g>
<!-- UserDisplayComponent -->
<g id="node1" class="node">
<title>UserDisplayComponent</title>
<polygon fill="#ffffb3" stroke="#000000" points="463.8061,-122 312.1939,-122 312.1939,-86 463.8061,-86 463.8061,-122"/>
<text text-anchor="middle" x="388" y="-99.8" font-family="Times,serif" font-size="14.00" fill="#000000">UserDisplayComponent</text>
</g>
<!-- UserModule -->
<g id="node2" class="node">
<title>UserModule</title>
<polygon fill="#8dd3c7" stroke="#000000" points="277.9762,-187 274.9762,-191 253.9762,-191 250.9762,-187 192.0238,-187 192.0238,-151 277.9762,-151 277.9762,-187"/>
<text text-anchor="middle" x="235" y="-164.8" font-family="Times,serif" font-size="14.00" fill="#000000">UserModule</text>
</g>
<!-- UserDisplayComponent&#45;&gt;UserModule -->
<g id="edge1" class="edge">
<title>UserDisplayComponent&#45;&gt;UserModule</title>
<path fill="none" stroke="#000000" d="M388.0279,-122.1061C388.0279,-141.3391 388.0279,-169 388.0279,-169 388.0279,-169 288.034,-169 288.034,-169"/>
<polygon fill="#000000" stroke="#000000" points="288.0341,-165.5001 278.034,-169 288.034,-172.5001 288.0341,-165.5001"/>
</g>
<!-- UserDisplayComponent  -->
<g id="node5" class="node">
<title>UserDisplayComponent </title>
<polygon fill="#fb8072" stroke="#000000" points="312.3059,-252 157.6941,-252 157.6941,-216 312.3059,-216 312.3059,-252"/>
<text text-anchor="middle" x="235" y="-229.8" font-family="Times,serif" font-size="14.00" fill="#000000">UserDisplayComponent </text>
</g>
<!-- UserModule&#45;&gt;UserDisplayComponent  -->
<g id="edge4" class="edge">
<title>UserModule&#45;&gt;UserDisplayComponent </title>
<path fill="none" stroke="#000000" stroke-dasharray="5,2" d="M235,-187.1061C235,-187.1061 235,-205.991 235,-205.991"/>
<polygon fill="#000000" stroke="#000000" points="231.5001,-205.9909 235,-215.991 238.5001,-205.991 231.5001,-205.9909"/>
</g>
<!-- MaterialModule -->
<g id="node3" class="node">
<title>MaterialModule</title>
<polygon fill="#8dd3c7" stroke="#000000" points="288.4706,-122 285.4706,-126 264.4706,-126 261.4706,-122 181.5294,-122 181.5294,-86 288.4706,-86 288.4706,-122"/>
<text text-anchor="middle" x="235" y="-99.8" font-family="Times,serif" font-size="14.00" fill="#000000">MaterialModule</text>
</g>
<!-- MaterialModule&#45;&gt;UserModule -->
<g id="edge2" class="edge">
<title>MaterialModule&#45;&gt;UserModule</title>
<path fill="none" stroke="#000000" d="M235,-122.1061C235,-122.1061 235,-140.991 235,-140.991"/>
<polygon fill="#000000" stroke="#000000" points="231.5001,-140.9909 235,-150.991 238.5001,-140.991 231.5001,-140.9909"/>
</g>
<!-- UserRoutingModule -->
<g id="node4" class="node">
<title>UserRoutingModule</title>
<polygon fill="#8dd3c7" stroke="#000000" points="163.594,-122 160.594,-126 139.594,-126 136.594,-122 32.406,-122 32.406,-86 163.594,-86 163.594,-122"/>
<text text-anchor="middle" x="98" y="-99.8" font-family="Times,serif" font-size="14.00" fill="#000000">UserRoutingModule</text>
</g>
<!-- UserRoutingModule&#45;&gt;UserModule -->
<g id="edge3" class="edge">
<title>UserRoutingModule&#45;&gt;UserModule</title>
<path fill="none" stroke="#000000" d="M95.0251,-122.1061C95.0251,-141.3391 95.0251,-169 95.0251,-169 95.0251,-169 181.8607,-169 181.8607,-169"/>
<polygon fill="#000000" stroke="#000000" points="181.8608,-172.5001 191.8607,-169 181.8607,-165.5001 181.8608,-172.5001"/>
</g>
</g>
</svg>
