<?xml version="1.0" encoding="UTF-8" standalone="no"?>
<!DOCTYPE svg PUBLIC "-//W3C//DTD SVG 1.1//EN"
 "http://www.w3.org/Graphics/SVG/1.1/DTD/svg11.dtd">
<!-- Generated by graphviz version 2.40.1 (20161225.0304)
 -->
<!-- Title: dependencies Pages: 1 -->
<svg width="1269pt" height="284pt"
 viewBox="0.00 0.00 1269.00 284.00" xmlns="http://www.w3.org/2000/svg" xmlns:xlink="http://www.w3.org/1999/xlink">
<g id="graph0" class="graph" transform="scale(1 1) rotate(0) translate(4 280)">
<title>dependencies</title>
<polygon fill="#ffffff" stroke="transparent" points="-4,4 -4,-280 1265,-280 1265,4 -4,4"/>
<text text-anchor="start" x="609.5091" y="-42.4" font-family="sans-serif" font-weight="bold" font-size="14.00" fill="#000000">Legend</text>
<polygon fill="#ffffb3" stroke="transparent" points="396.5,-10 396.5,-30 416.5,-30 416.5,-10 396.5,-10"/>
<text text-anchor="start" x="420.129" y="-15.4" font-family="sans-serif" font-size="14.00" fill="#000000"> &#160;Declarations</text>
<polygon fill="#8dd3c7" stroke="transparent" points="509.5,-10 509.5,-30 529.5,-30 529.5,-10 509.5,-10"/>
<text text-anchor="start" x="533.2251" y="-15.4" font-family="sans-serif" font-size="14.00" fill="#000000"> &#160;Module</text>
<polygon fill="#80b1d3" stroke="transparent" points="595.5,-10 595.5,-30 615.5,-30 615.5,-10 595.5,-10"/>
<text text-anchor="start" x="619.2812" y="-15.4" font-family="sans-serif" font-size="14.00" fill="#000000"> &#160;Bootstrap</text>
<polygon fill="#fdb462" stroke="transparent" points="692.5,-10 692.5,-30 712.5,-30 712.5,-10 692.5,-10"/>
<text text-anchor="start" x="716.1732" y="-15.4" font-family="sans-serif" font-size="14.00" fill="#000000"> &#160;Providers</text>
<polygon fill="#fb8072" stroke="transparent" points="788.5,-10 788.5,-30 808.5,-30 808.5,-10 788.5,-10"/>
<text text-anchor="start" x="812.2258" y="-15.4" font-family="sans-serif" font-size="14.00" fill="#000000"> &#160;Exports</text>
<g id="clust1" class="cluster">
<title>cluster_AppModule</title>
<polygon fill="none" stroke="#000000" stroke-dasharray="1,5" points="8,-70 8,-268 1253,-268 1253,-70 8,-70"/>
</g>
<g id="clust2" class="cluster">
<title>cluster_AppModule_declarations</title>
<polygon fill="none" stroke="#000000" points="847,-78 847,-130 1245,-130 1245,-78 847,-78"/>
</g>
<g id="clust6" class="cluster">
<title>cluster_AppModule_imports</title>
<polygon fill="none" stroke="#000000" points="16,-78 16,-130 839,-130 839,-78 16,-78"/>
</g>
<g id="clust8" class="cluster">
<title>cluster_AppModule_bootstrap</title>
<polygon fill="none" stroke="#000000" points="525,-208 525,-260 649,-260 649,-208 525,-208"/>
</g>
<!-- AppComponent -->
<g id="node1" class="node">
<title>AppComponent</title>
<polygon fill="#ffffb3" stroke="#000000" points="1236.9399,-122 1131.0601,-122 1131.0601,-86 1236.9399,-86 1236.9399,-122"/>
<text text-anchor="middle" x="1184" y="-99.8" font-family="Times,serif" font-size="14.00" fill="#000000">AppComponent</text>
</g>
<!-- AppModule -->
<g id="node4" class="node">
<title>AppModule</title>
<polygon fill="#8dd3c7" stroke="#000000" points="628.6571,-187 625.6571,-191 604.6571,-191 601.6571,-187 545.3429,-187 545.3429,-151 628.6571,-151 628.6571,-187"/>
<text text-anchor="middle" x="587" y="-164.8" font-family="Times,serif" font-size="14.00" fill="#000000">AppModule</text>
</g>
<!-- AppComponent&#45;&gt;AppModule -->
<g id="edge1" class="edge">
<title>AppComponent&#45;&gt;AppModule</title>
<path fill="none" stroke="#000000" d="M1184,-122.0109C1184,-144.4852 1184,-180 1184,-180 1184,-180 638.9799,-180 638.9799,-180"/>
<polygon fill="#000000" stroke="#000000" points="638.9799,-176.5001 628.9799,-180 638.9798,-183.5001 638.9799,-176.5001"/>
</g>
<!-- FooterComponent -->
<g id="node2" class="node">
<title>FooterComponent</title>
<polygon fill="#ffffb3" stroke="#000000" points="1112.8809,-122 995.1191,-122 995.1191,-86 1112.8809,-86 1112.8809,-122"/>
<text text-anchor="middle" x="1054" y="-99.8" font-family="Times,serif" font-size="14.00" fill="#000000">FooterComponent</text>
</g>
<!-- FooterComponent&#45;&gt;AppModule -->
<g id="edge2" class="edge">
<title>FooterComponent&#45;&gt;AppModule</title>
<path fill="none" stroke="#000000" d="M1054,-122.1289C1054,-142.5724 1054,-173 1054,-173 1054,-173 638.8541,-173 638.8541,-173"/>
<polygon fill="#000000" stroke="#000000" points="638.8542,-169.5001 628.8541,-173 638.8541,-176.5001 638.8542,-169.5001"/>
</g>
<!-- HeaderComponent -->
<g id="node3" class="node">
<title>HeaderComponent</title>
<polygon fill="#ffffb3" stroke="#000000" points="976.7437,-122 855.2563,-122 855.2563,-86 976.7437,-86 976.7437,-122"/>
<text text-anchor="middle" x="916" y="-99.8" font-family="Times,serif" font-size="14.00" fill="#000000">HeaderComponent</text>
</g>
<!-- HeaderComponent&#45;&gt;AppModule -->
<g id="edge3" class="edge">
<title>HeaderComponent&#45;&gt;AppModule</title>
<path fill="none" stroke="#000000" d="M916,-122.2667C916,-140.5552 916,-166 916,-166 916,-166 638.6681,-166 638.6681,-166"/>
<polygon fill="#000000" stroke="#000000" points="638.6681,-162.5001 628.6681,-166 638.668,-169.5001 638.6681,-162.5001"/>
</g>
<!-- AppComponent  -->
<g id="node12" class="node">
<title>AppComponent </title>
<polygon fill="#80b1d3" stroke="#000000" points="641.439,-252 532.561,-252 532.561,-216 641.439,-216 641.439,-252"/>
<text text-anchor="middle" x="587" y="-229.8" font-family="Times,serif" font-size="14.00" fill="#000000">AppComponent </text>
</g>
<!-- AppModule&#45;&gt;AppComponent  -->
<g id="edge11" class="edge">
<title>AppModule&#45;&gt;AppComponent </title>
<path fill="none" stroke="#000000" stroke-dasharray="1,5" d="M587,-187.1061C587,-187.1061 587,-205.991 587,-205.991"/>
<polygon fill="#000000" stroke="#000000" points="583.5001,-205.9909 587,-215.991 590.5001,-205.991 583.5001,-205.9909"/>
</g>
<!-- AdminModule -->
<g id="node5" class="node">
<title>AdminModule</title>
<polygon fill="#8dd3c7" stroke="#000000" points="831.4386,-122 828.4386,-126 807.4386,-126 804.4386,-122 732.5614,-122 732.5614,-86 831.4386,-86 831.4386,-122"/>
<text text-anchor="middle" x="782" y="-99.8" font-family="Times,serif" font-size="14.00" fill="#000000">AdminModule</text>
</g>
<!-- AdminModule&#45;&gt;AppModule -->
<g id="edge4" class="edge">
<title>AdminModule&#45;&gt;AppModule</title>
<path fill="none" stroke="#000000" d="M782,-122.0091C782,-138.0494 782,-159 782,-159 782,-159 638.8324,-159 638.8324,-159"/>
<polygon fill="#000000" stroke="#000000" points="638.8324,-155.5001 628.8324,-159 638.8324,-162.5001 638.8324,-155.5001"/>
</g>
<!-- AppRoutingModule -->
<g id="node6" class="node">
<title>AppRoutingModule</title>
<polygon fill="#8dd3c7" stroke="#000000" points="714.2744,-122 711.2744,-126 690.2744,-126 687.2744,-122 585.7256,-122 585.7256,-86 714.2744,-86 714.2744,-122"/>
<text text-anchor="middle" x="650" y="-99.8" font-family="Times,serif" font-size="14.00" fill="#000000">AppRoutingModule</text>
</g>
<!-- AppRoutingModule&#45;&gt;AppModule -->
<g id="edge5" class="edge">
<title>AppRoutingModule&#45;&gt;AppModule</title>
<path fill="none" stroke="#000000" d="M607.2206,-122.1061C607.2206,-122.1061 607.2206,-140.991 607.2206,-140.991"/>
<polygon fill="#000000" stroke="#000000" points="603.7206,-140.9909 607.2206,-150.991 610.7206,-140.991 603.7206,-140.9909"/>
</g>
<!-- CoreModule -->
<g id="node7" class="node">
<title>CoreModule</title>
<polygon fill="#8dd3c7" stroke="#000000" points="567.2619,-122 564.2619,-126 543.2619,-126 540.2619,-122 480.7381,-122 480.7381,-86 567.2619,-86 567.2619,-122"/>
<text text-anchor="middle" x="524" y="-99.8" font-family="Times,serif" font-size="14.00" fill="#000000">CoreModule</text>
</g>
<!-- CoreModule&#45;&gt;AppModule -->
<g id="edge6" class="edge">
<title>CoreModule&#45;&gt;AppModule</title>
<path fill="none" stroke="#000000" d="M556.2763,-122.1061C556.2763,-122.1061 556.2763,-140.991 556.2763,-140.991"/>
<polygon fill="#000000" stroke="#000000" points="552.7764,-140.9909 556.2763,-150.991 559.7764,-140.991 552.7764,-140.9909"/>
</g>
<!-- HomeModule -->
<g id="node8" class="node">
<title>HomeModule</title>
<polygon fill="#8dd3c7" stroke="#000000" points="462.7619,-122 459.7619,-126 438.7619,-126 435.7619,-122 369.2381,-122 369.2381,-86 462.7619,-86 462.7619,-122"/>
<text text-anchor="middle" x="416" y="-99.8" font-family="Times,serif" font-size="14.00" fill="#000000">HomeModule</text>
</g>
<!-- HomeModule&#45;&gt;AppModule -->
<g id="edge7" class="edge">
<title>HomeModule&#45;&gt;AppModule</title>
<path fill="none" stroke="#000000" d="M416,-122.0091C416,-138.0494 416,-159 416,-159 416,-159 535.1687,-159 535.1687,-159"/>
<polygon fill="#000000" stroke="#000000" points="535.1687,-162.5001 545.1687,-159 535.1687,-155.5001 535.1687,-162.5001"/>
</g>
<!-- MaterialModule -->
<g id="node9" class="node">
<title>MaterialModule</title>
<polygon fill="#8dd3c7" stroke="#000000" points="351.4706,-122 348.4706,-126 327.4706,-126 324.4706,-122 244.5294,-122 244.5294,-86 351.4706,-86 351.4706,-122"/>
<text text-anchor="middle" x="298" y="-99.8" font-family="Times,serif" font-size="14.00" fill="#000000">MaterialModule</text>
</g>
<!-- MaterialModule&#45;&gt;AppModule -->
<g id="edge8" class="edge">
<title>MaterialModule&#45;&gt;AppModule</title>
<path fill="none" stroke="#000000" d="M298,-122.2667C298,-140.5552 298,-166 298,-166 298,-166 535.2856,-166 535.2856,-166"/>
<polygon fill="#000000" stroke="#000000" points="535.2856,-169.5001 545.2856,-166 535.2855,-162.5001 535.2856,-169.5001"/>
</g>
<!-- SharedModule -->
<g id="node10" class="node">
<title>SharedModule</title>
<polygon fill="#8dd3c7" stroke="#000000" points="226.4231,-122 223.4231,-126 202.4231,-126 199.4231,-122 127.5769,-122 127.5769,-86 226.4231,-86 226.4231,-122"/>
<text text-anchor="middle" x="177" y="-99.8" font-family="Times,serif" font-size="14.00" fill="#000000">SharedModule</text>
</g>
<!-- SharedModule&#45;&gt;AppModule -->
<g id="edge9" class="edge">
<title>SharedModule&#45;&gt;AppModule</title>
<path fill="none" stroke="#000000" d="M177,-122.1289C177,-142.5724 177,-173 177,-173 177,-173 535.0496,-173 535.0496,-173"/>
<polygon fill="#000000" stroke="#000000" points="535.0496,-176.5001 545.0496,-173 535.0496,-169.5001 535.0496,-176.5001"/>
</g>
<!-- UserModule -->
<g id="node11" class="node">
<title>UserModule</title>
<polygon fill="#8dd3c7" stroke="#000000" points="109.9762,-122 106.9762,-126 85.9762,-126 82.9762,-122 24.0238,-122 24.0238,-86 109.9762,-86 109.9762,-122"/>
<text text-anchor="middle" x="67" y="-99.8" font-family="Times,serif" font-size="14.00" fill="#000000">UserModule</text>
</g>
<!-- UserModule&#45;&gt;AppModule -->
<g id="edge10" class="edge">
<title>UserModule&#45;&gt;AppModule</title>
<path fill="none" stroke="#000000" d="M67,-122.0109C67,-144.4852 67,-180 67,-180 67,-180 535.3252,-180 535.3252,-180"/>
<polygon fill="#000000" stroke="#000000" points="535.3253,-183.5001 545.3252,-180 535.3252,-176.5001 535.3253,-183.5001"/>
</g>
</g>
</svg>
