<?xml version="1.0" encoding="UTF-8" standalone="no"?>
<!DOCTYPE svg PUBLIC "-//W3C//DTD SVG 1.1//EN"
 "http://www.w3.org/Graphics/SVG/1.1/DTD/svg11.dtd">
<!-- Generated by graphviz version 2.40.1 (20161225.0304)
 -->
<!-- Title: dependencies Pages: 1 -->
<svg width="2086pt" height="211pt"
 viewBox="0.00 0.00 2086.00 211.00" xmlns="http://www.w3.org/2000/svg" xmlns:xlink="http://www.w3.org/1999/xlink">
<g id="graph0" class="graph" transform="scale(1 1) rotate(0) translate(4 207)">
<title>dependencies</title>
<polygon fill="#ffffff" stroke="transparent" points="-4,4 -4,-207 2082,-207 2082,4 -4,4"/>
<text text-anchor="start" x="1018.0091" y="-42.4" font-family="sans-serif" font-weight="bold" font-size="14.00" fill="#000000">Legend</text>
<polygon fill="#ffffb3" stroke="transparent" points="805,-10 805,-30 825,-30 825,-10 805,-10"/>
<text text-anchor="start" x="828.629" y="-15.4" font-family="sans-serif" font-size="14.00" fill="#000000"> &#160;Declarations</text>
<polygon fill="#8dd3c7" stroke="transparent" points="918,-10 918,-30 938,-30 938,-10 918,-10"/>
<text text-anchor="start" x="941.7251" y="-15.4" font-family="sans-serif" font-size="14.00" fill="#000000"> &#160;Module</text>
<polygon fill="#80b1d3" stroke="transparent" points="1004,-10 1004,-30 1024,-30 1024,-10 1004,-10"/>
<text text-anchor="start" x="1027.7812" y="-15.4" font-family="sans-serif" font-size="14.00" fill="#000000"> &#160;Bootstrap</text>
<polygon fill="#fdb462" stroke="transparent" points="1101,-10 1101,-30 1121,-30 1121,-10 1101,-10"/>
<text text-anchor="start" x="1124.6732" y="-15.4" font-family="sans-serif" font-size="14.00" fill="#000000"> &#160;Providers</text>
<polygon fill="#fb8072" stroke="transparent" points="1197,-10 1197,-30 1217,-30 1217,-10 1197,-10"/>
<text text-anchor="start" x="1220.7258" y="-15.4" font-family="sans-serif" font-size="14.00" fill="#000000"> &#160;Exports</text>
<g id="clust1" class="cluster">
<title>cluster_HomeModule</title>
<polygon fill="none" stroke="#000000" stroke-dasharray="1,5" points="8,-70 8,-195 2070,-195 2070,-70 8,-70"/>
</g>
<g id="clust2" class="cluster">
<title>cluster_HomeModule_declarations</title>
<polygon fill="none" stroke="#000000" points="295,-78 295,-130 2062,-130 2062,-78 295,-78"/>
</g>
<g id="clust13" class="cluster">
<title>cluster_HomeModule_imports</title>
<polygon fill="none" stroke="#000000" points="16,-78 16,-130 287,-130 287,-78 16,-78"/>
</g>
<!-- AboutComponent -->
<g id="node1" class="node">
<title>AboutComponent</title>
<polygon fill="#ffffb3" stroke="#000000" points="2054.3301,-122 1937.6699,-122 1937.6699,-86 2054.3301,-86 2054.3301,-122"/>
<text text-anchor="middle" x="1996" y="-99.8" font-family="Times,serif" font-size="14.00" fill="#000000">AboutComponent</text>
</g>
<!-- HomeModule -->
<g id="node11" class="node">
<title>HomeModule</title>
<polygon fill="#8dd3c7" stroke="#000000" points="1060.7619,-187 1057.7619,-191 1036.7619,-191 1033.7619,-187 967.2381,-187 967.2381,-151 1060.7619,-151 1060.7619,-187"/>
<text text-anchor="middle" x="1014" y="-164.8" font-family="Times,serif" font-size="14.00" fill="#000000">HomeModule</text>
</g>
<!-- AboutComponent&#45;&gt;HomeModule -->
<g id="edge1" class="edge">
<title>AboutComponent&#45;&gt;HomeModule</title>
<path fill="none" stroke="#000000" d="M1996,-122.0908C1996,-145.1328 1996,-182 1996,-182 1996,-182 1071.0331,-182 1071.0331,-182"/>
<polygon fill="#000000" stroke="#000000" points="1071.0331,-178.5001 1061.0331,-182 1071.033,-185.5001 1071.0331,-178.5001"/>
</g>
<!-- BusinessOwnerRegistrationComponent -->
<g id="node2" class="node">
<title>BusinessOwnerRegistrationComponent</title>
<polygon fill="#ffffb3" stroke="#000000" points="1919.6301,-122 1682.3699,-122 1682.3699,-86 1919.6301,-86 1919.6301,-122"/>
<text text-anchor="middle" x="1801" y="-99.8" font-family="Times,serif" font-size="14.00" fill="#000000">BusinessOwnerRegistrationComponent</text>
</g>
<!-- BusinessOwnerRegistrationComponent&#45;&gt;HomeModule -->
<g id="edge2" class="edge">
<title>BusinessOwnerRegistrationComponent&#45;&gt;HomeModule</title>
<path fill="none" stroke="#000000" d="M1801,-122.2843C1801,-143.3211 1801,-175 1801,-175 1801,-175 1070.8736,-175 1070.8736,-175"/>
<polygon fill="#000000" stroke="#000000" points="1070.8736,-171.5001 1060.8736,-175 1070.8735,-178.5001 1070.8736,-171.5001"/>
</g>
<!-- ClientRegistrationComponent -->
<g id="node3" class="node">
<title>ClientRegistrationComponent</title>
<polygon fill="#ffffb3" stroke="#000000" points="1663.9888,-122 1480.0112,-122 1480.0112,-86 1663.9888,-86 1663.9888,-122"/>
<text text-anchor="middle" x="1572" y="-99.8" font-family="Times,serif" font-size="14.00" fill="#000000">ClientRegistrationComponent</text>
</g>
<!-- ClientRegistrationComponent&#45;&gt;HomeModule -->
<g id="edge3" class="edge">
<title>ClientRegistrationComponent&#45;&gt;HomeModule</title>
<path fill="none" stroke="#000000" d="M1572,-122.1061C1572,-141.3391 1572,-169 1572,-169 1572,-169 1071.0939,-169 1071.0939,-169"/>
<polygon fill="#000000" stroke="#000000" points="1071.0939,-165.5001 1061.0939,-169 1071.0938,-172.5001 1071.0939,-165.5001"/>
</g>
<!-- ContactComponent -->
<g id="node4" class="node">
<title>ContactComponent</title>
<polygon fill="#ffffb3" stroke="#000000" points="1462.3795,-122 1337.6205,-122 1337.6205,-86 1462.3795,-86 1462.3795,-122"/>
<text text-anchor="middle" x="1400" y="-99.8" font-family="Times,serif" font-size="14.00" fill="#000000">ContactComponent</text>
</g>
<!-- ContactComponent&#45;&gt;HomeModule -->
<g id="edge4" class="edge">
<title>ContactComponent&#45;&gt;HomeModule</title>
<path fill="none" stroke="#000000" d="M1400,-122.0225C1400,-139.3734 1400,-163 1400,-163 1400,-163 1070.9453,-163 1070.9453,-163"/>
<polygon fill="#000000" stroke="#000000" points="1070.9453,-159.5001 1060.9453,-163 1070.9452,-166.5001 1070.9453,-159.5001"/>
</g>
<!-- FirstStepRegComponent -->
<g id="node5" class="node">
<title>FirstStepRegComponent</title>
<polygon fill="#ffffb3" stroke="#000000" points="1319.441,-122 1164.559,-122 1164.559,-86 1319.441,-86 1319.441,-122"/>
<text text-anchor="middle" x="1242" y="-99.8" font-family="Times,serif" font-size="14.00" fill="#000000">FirstStepRegComponent</text>
</g>
<!-- FirstStepRegComponent&#45;&gt;HomeModule -->
<g id="edge5" class="edge">
<title>FirstStepRegComponent&#45;&gt;HomeModule</title>
<path fill="none" stroke="#000000" d="M1242,-122.2396C1242,-137.5706 1242,-157 1242,-157 1242,-157 1070.9653,-157 1070.9653,-157"/>
<polygon fill="#000000" stroke="#000000" points="1070.9653,-153.5001 1060.9653,-157 1070.9653,-160.5001 1070.9653,-153.5001"/>
</g>
<!-- HomeComponent -->
<g id="node6" class="node">
<title>HomeComponent</title>
<polygon fill="#ffffb3" stroke="#000000" points="1146.5451,-122 1031.4549,-122 1031.4549,-86 1146.5451,-86 1146.5451,-122"/>
<text text-anchor="middle" x="1089" y="-99.8" font-family="Times,serif" font-size="14.00" fill="#000000">HomeComponent</text>
</g>
<!-- HomeComponent&#45;&gt;HomeModule -->
<g id="edge6" class="edge">
<title>HomeComponent&#45;&gt;HomeModule</title>
<path fill="none" stroke="#000000" d="M1046.0543,-122.1061C1046.0543,-122.1061 1046.0543,-140.991 1046.0543,-140.991"/>
<polygon fill="#000000" stroke="#000000" points="1042.5544,-140.9909 1046.0543,-150.991 1049.5544,-140.991 1042.5544,-140.9909"/>
</g>
<!-- HomeLoginComponent -->
<g id="node7" class="node">
<title>HomeLoginComponent</title>
<polygon fill="#ffffb3" stroke="#000000" points="1013.4874,-122 864.5126,-122 864.5126,-86 1013.4874,-86 1013.4874,-122"/>
<text text-anchor="middle" x="939" y="-99.8" font-family="Times,serif" font-size="14.00" fill="#000000">HomeLoginComponent</text>
</g>
<!-- HomeLoginComponent&#45;&gt;HomeModule -->
<g id="edge7" class="edge">
<title>HomeLoginComponent&#45;&gt;HomeModule</title>
<path fill="none" stroke="#000000" d="M990.3065,-122.1061C990.3065,-122.1061 990.3065,-140.991 990.3065,-140.991"/>
<polygon fill="#000000" stroke="#000000" points="986.8065,-140.9909 990.3065,-150.991 993.8065,-140.991 986.8065,-140.9909"/>
</g>
<!-- HomeRegistrationComponent -->
<g id="node8" class="node">
<title>HomeRegistrationComponent</title>
<polygon fill="#ffffb3" stroke="#000000" points="846.9776,-122 663.0224,-122 663.0224,-86 846.9776,-86 846.9776,-122"/>
<text text-anchor="middle" x="755" y="-99.8" font-family="Times,serif" font-size="14.00" fill="#000000">HomeRegistrationComponent</text>
</g>
<!-- HomeRegistrationComponent&#45;&gt;HomeModule -->
<g id="edge8" class="edge">
<title>HomeRegistrationComponent&#45;&gt;HomeModule</title>
<path fill="none" stroke="#000000" d="M755,-122.2396C755,-137.5706 755,-157 755,-157 755,-157 957.0971,-157 957.0971,-157"/>
<polygon fill="#000000" stroke="#000000" points="957.0971,-160.5001 967.0971,-157 957.097,-153.5001 957.0971,-160.5001"/>
</g>
<!-- HomeSignUpComponent -->
<g id="node9" class="node">
<title>HomeSignUpComponent</title>
<polygon fill="#ffffb3" stroke="#000000" points="645.3243,-122 486.6757,-122 486.6757,-86 645.3243,-86 645.3243,-122"/>
<text text-anchor="middle" x="566" y="-99.8" font-family="Times,serif" font-size="14.00" fill="#000000">HomeSignUpComponent</text>
</g>
<!-- HomeSignUpComponent&#45;&gt;HomeModule -->
<g id="edge9" class="edge">
<title>HomeSignUpComponent&#45;&gt;HomeModule</title>
<path fill="none" stroke="#000000" d="M566,-122.0225C566,-139.3734 566,-163 566,-163 566,-163 956.9029,-163 956.9029,-163"/>
<polygon fill="#000000" stroke="#000000" points="956.9029,-166.5001 966.9029,-163 956.9029,-159.5001 956.9029,-166.5001"/>
</g>
<!-- PageNotFoundComponent -->
<g id="node10" class="node">
<title>PageNotFoundComponent</title>
<polygon fill="#ffffb3" stroke="#000000" points="468.8243,-122 303.1757,-122 303.1757,-86 468.8243,-86 468.8243,-122"/>
<text text-anchor="middle" x="386" y="-99.8" font-family="Times,serif" font-size="14.00" fill="#000000">PageNotFoundComponent</text>
</g>
<!-- PageNotFoundComponent&#45;&gt;HomeModule -->
<g id="edge10" class="edge">
<title>PageNotFoundComponent&#45;&gt;HomeModule</title>
<path fill="none" stroke="#000000" d="M386,-122.1061C386,-141.3391 386,-169 386,-169 386,-169 957.0548,-169 957.0548,-169"/>
<polygon fill="#000000" stroke="#000000" points="957.0548,-172.5001 967.0548,-169 957.0547,-165.5001 957.0548,-172.5001"/>
</g>
<!-- HomeRoutingModule -->
<g id="node12" class="node">
<title>HomeRoutingModule</title>
<polygon fill="#8dd3c7" stroke="#000000" points="279.3795,-122 276.3795,-126 255.3795,-126 252.3795,-122 140.6205,-122 140.6205,-86 279.3795,-86 279.3795,-122"/>
<text text-anchor="middle" x="210" y="-99.8" font-family="Times,serif" font-size="14.00" fill="#000000">HomeRoutingModule</text>
</g>
<!-- HomeRoutingModule&#45;&gt;HomeModule -->
<g id="edge11" class="edge">
<title>HomeRoutingModule&#45;&gt;HomeModule</title>
<path fill="none" stroke="#000000" d="M210,-122.2843C210,-143.3211 210,-175 210,-175 210,-175 957.0035,-175 957.0035,-175"/>
<polygon fill="#000000" stroke="#000000" points="957.0035,-178.5001 967.0035,-175 957.0034,-171.5001 957.0035,-178.5001"/>
</g>
<!-- SharedModule -->
<g id="node13" class="node">
<title>SharedModule</title>
<polygon fill="#8dd3c7" stroke="#000000" points="122.4231,-122 119.4231,-126 98.4231,-126 95.4231,-122 23.5769,-122 23.5769,-86 122.4231,-86 122.4231,-122"/>
<text text-anchor="middle" x="73" y="-99.8" font-family="Times,serif" font-size="14.00" fill="#000000">SharedModule</text>
</g>
<!-- SharedModule&#45;&gt;HomeModule -->
<g id="edge12" class="edge">
<title>SharedModule&#45;&gt;HomeModule</title>
<path fill="none" stroke="#000000" d="M73,-122.0908C73,-145.1328 73,-182 73,-182 73,-182 957.0137,-182 957.0137,-182"/>
<polygon fill="#000000" stroke="#000000" points="957.0137,-185.5001 967.0137,-182 957.0137,-178.5001 957.0137,-185.5001"/>
</g>
</g>
</svg>
