<svg xmlns="http://www.w3.org/2000/svg" xmlns:xlink="http://www.w3.org/1999/xlink" version="1.1" x="0px" y="0px" viewBox="0 0 50 62.5" enable-background="new 0 0 50 50" xml:space="preserve"><g><path fill="#fff" fill-rule="evenodd" clip-rule="evenodd" d="M22.153,33.964c6.505,0,10.109-8.915,10.296-14.57   c0.06-1.805-0.153-3.578-0.69-5.175c-1.267-3.768-4.268-6.541-9.606-6.541c-5.339,0-8.339,2.773-9.605,6.541   c-0.537,1.596-0.75,3.37-0.69,5.175C12.053,25.205,15.634,33.964,22.153,33.964 M28.079,18.142   c0.821,0.145,1.416,0.507,1.811,0.966c0.503,0.586,0.703,1.337,0.647,2.001c-0.582,4.216-3.49,11.088-8.384,11.088   c-4.789,0-7.711-6.573-8.358-10.913c0.3-0.905,1.357-2.899,2.374-3.144c2.325,0.995,4.133,1.374,5.972,1.311   C23.965,19.39,25.751,18.896,28.079,18.142z M34.938,8.814c0-3.477,3.522-5.531,6.649-5.531c3.127,0,6.647,2.054,6.647,5.531   c0,4.042-4.354,5.847-7.85,5.447l-3.292,1.854l0.695-2.73C36.15,12.229,34.938,10.942,34.938,8.814z M41.587,1.517   c-4.112,0-8.415,2.829-8.415,7.297c0,2.093,1.018,3.969,2.612,5.286l-1.422,5.576l6.396-3.602C45.154,16.384,50,13.659,50,8.814   C50,4.345,45.7,1.517,41.587,1.517z M40.78,7.321v5.08c0,1.032,1.613,1.003,1.613,0v-5.08C42.393,6.318,40.78,6.295,40.78,7.321z    M41.005,5.665c0.304,0.303,0.859,0.303,1.163,0c0.306-0.307,0.306-0.918,0-1.224c-0.303-0.304-0.859-0.304-1.163,0   C40.699,4.747,40.699,5.358,41.005,5.665z M21.438,43.409c0.344,0.479,1.06,0.494,1.42,0.017l6.517-8.644   c5.119,0.841,8.528,2.41,10.588,4.55c1.889,1.963,2.653,4.453,2.574,7.334c-13.588-0.141-27.177,0.162-40.765,0.018   c-0.08-2.79,0.621-5.214,2.366-7.145c2.66-2.942,6.987-4.098,10.768-4.758L21.438,43.409z M41.231,38.11   c-2.396-2.488-6.296-4.275-12.11-5.156c-0.347-0.052-0.677,0.105-0.861,0.377l-6.108,8.101l-6.158-8.134   c-0.212-0.282-0.562-0.401-0.886-0.332c-4.39,0.696-9.232,2.028-12.274,5.393c-2.273,2.515-3.064,5.662-2.778,9.264   c0.038,0.482,0.457,0.843,0.938,0.812c14.123,0.168,28.246-0.169,42.369-0.001c0.459,0.005,0.89-0.449,0.89-0.811   C44.548,43.898,43.687,40.661,41.231,38.11z M22.153,9.444c4.429,0,6.904,2.261,7.937,5.334c0.275,0.819,0.453,1.698,0.541,2.61   c-0.82-0.653-1.691-0.915-2.714-1.045c-1.844,0.597-3.882,1.283-5.83,1.35c-2.018,0.069-3.778-0.538-5.601-1.335   c-1.25,0-2.091,0.697-2.854,1.606c0.062-1.117,0.252-2.196,0.585-3.186C15.25,11.705,17.726,9.444,22.153,9.444z"/></g></svg>
