<?xml version="1.0" encoding="utf-8"?>
<!-- Generator: Adobe Illustrator 23.0.1, SVG Export Plug-In . SVG Version: 6.00 Build 0)  -->
<svg version="1.1" xmlns="http://www.w3.org/2000/svg" xmlns:xlink="http://www.w3.org/1999/xlink" x="0px" y="0px"
	 viewBox="0 0 629.22 496.53" style="enable-background:new 0 0 629.22 496.53;" xml:space="preserve">
<style type="text/css">
	.st0{display:none;}
	.st1{display:inline;fill:#262626;}
	.st2{fill:#8B4E9E;}
	.st3{fill:none;stroke:#FFFFFF;stroke-width:5;stroke-miterlimit:10;}
	.st4{fill:#FFFFFF;}
	.st5{fill:#7B4E9F;}
	.st6{fill:#262626;}
	.st7{fill:none;stroke:#FFFFFF;stroke-width:7.6109;stroke-linecap:round;stroke-miterlimit:10;stroke-dasharray:80;}
	.st8{fill:none;stroke:#000000;stroke-width:7;stroke-miterlimit:10;}
</style>
<g id="Layer_2" class="st0">
	<rect x="-7224.95" y="-249.47" class="st1" width="8910.11" height="8722.53"/>
</g>
<g id="Layer_1">
	<g>
		<path class="st4" d="M393.43,31.75l47.85,321.81h-85.52l-4.49-57.84h-29.93l-5.03,57.84h-86.51l42.69-321.81H393.43z
			 M349.08,238.67c-4.24-36.45-8.49-81.5-12.75-135.16c-8.53,61.62-13.88,106.68-16.06,135.16H349.08z"/>
	</g>
	<g>
		<path class="st4" d="M460.95,224.91h-1.33c2.06-2.36,4.95-3.69,8.64-3.99c3.69-0.29,6.87,0.74,9.53,3.1
			c2.95,2.37,5.24,4.95,6.87,7.76c1.62,2.81,2.88,7.09,3.77,12.86c0.89,5.76,1.48,13.82,1.77,24.16
			c0.29,10.35,0.59,24.23,0.89,41.67c0,10.64-0.3,18.33-0.89,23.05c-0.6,4.73-1.93,9.16-3.99,13.3
			c-5.62,11.82-11.97,12.86-19.06,3.1c-2.07-2.66-3.55-6.5-4.43-11.53c-0.89-5.02-1.77-13.59-2.66-25.71
			c-0.89-11.82-1.55-22.75-2-32.8c-0.44-10.04-0.67-18.99-0.67-26.82c0-7.83,0.29-14.18,0.89-19.06
			C458.88,229.12,459.76,226.09,460.95,224.91z M459.18,128.43l-0.44,0.45c0-4.22,0.52-6.7,1.57-7.46c1.05-0.75,4.27-1.13,9.68-1.13
			c11.11,0,16.67,3.77,16.67,11.3c0,7.54-4.66,11.3-13.97,11.3c-5.1,0-8.63-1.13-10.58-3.39S459.18,133.56,459.18,128.43z"/>
	</g>
	<g>
		<path class="st4" d="M541,155.91c2.06-2.95,4.72-4.43,7.98-4.43c6.79,0,11.67,2.88,14.63,8.64c2.95,5.76,4.43,14.85,4.43,27.26
			c0,20.99,6.35,31.47,19.06,31.47c7.68,0,14.33,0.67,19.95,1.99c5.61,1.33,8.42,2.74,8.42,4.21c0,1.18-0.89,2.81-2.66,4.88
			c-1.77,2.07-3.99,4.07-6.65,5.98c-2.66,1.93-5.4,3.77-8.2,5.54c-2.81,1.77-5.25,2.81-7.31,3.1c-2.07,0.6-4.36,1.63-6.87,3.1
			c-2.51,1.48-4.51,2.96-5.98,4.43c-1.48,1.48-2.51,2.88-3.1,4.21c-0.6,1.33-1.04,3.32-1.33,5.98c-0.3,2.66-0.37,6.43-0.22,11.3
			c0.15,4.88,0.37,11.6,0.67,20.17c0.59,12.41,1.03,22.09,1.33,29.03c0.29,6.95,0.37,12.27,0.22,15.96
			c-0.15,3.7-0.44,6.21-0.89,7.54c-0.44,1.33-1.11,2.59-2,3.77c-2.37,2.66-5.47,3.7-9.31,3.1c-3.84-0.59-7.09-2.66-9.75-6.21
			c-1.48-1.77-2.96-5.1-4.43-9.97c-1.48-4.88-2.88-10.56-4.21-17.07c-1.33-6.5-2.44-13.3-3.32-20.39
			c-0.89-7.09-1.48-13.59-1.77-19.5c0-4.14-0.22-7.38-0.67-9.75c-0.44-2.36-1.26-4.21-2.44-5.54c-1.18-1.33-2.88-2.36-5.1-3.1
			c-2.22-0.73-5.25-1.4-9.09-1.99c-5.62-0.89-10.2-2.95-13.74-6.21c-3.55-3.25-5.32-6.94-5.32-11.08c0-4.14,1.4-7.24,4.21-9.31
			c2.81-2.06,7.9-3.39,15.29-3.99l12.86-1.33l0.89-34.13c0.29-12.11,0.73-21.06,1.33-26.82C538.49,161.01,539.52,157.39,541,155.91z
			"/>
	</g>
	<g>
		<path class="st4" d="M71.96,400.51l-0.44-0.29c0.39-0.19,1-0.37,1.84-0.51s1.64-0.17,2.43-0.07c1.27,0.1,2.18,0.34,2.72,0.73
			c0.54,0.39,1.15,1.27,1.84,2.64c0.49,1.08,0.88,2.56,1.17,4.46c0.29,1.9,0.46,4.12,0.51,6.66c0.05,2.54-0.03,5.32-0.22,8.34
			c-0.2,3.03-0.49,6.15-0.88,9.37c-0.2,1.17-0.34,2.66-0.44,4.46c-0.1,1.81-0.22,3.81-0.37,6c-0.15,2.2-0.27,4.47-0.37,6.81
			c-0.1,2.34-0.2,4.59-0.29,6.73c-0.2,4.3-0.37,7.66-0.52,10.1c-0.15,2.44-0.4,4.3-0.74,5.56c-0.35,1.27-0.79,2.05-1.34,2.34
			c-0.54,0.29-1.31,0.39-2.3,0.29c-0.59-0.1-1.26-0.39-2.01-0.88c-0.74-0.49-1.36-1.02-1.86-1.61c-0.4-0.59-0.72-1.15-0.96-1.68
			c-0.25-0.54-0.42-1.32-0.52-2.34c-0.1-1.02-0.15-2.44-0.15-4.25c0-1.81,0-4.27,0-7.39c0-3.9,0.07-7.66,0.22-11.27
			c0.15-3.61,0.32-6.78,0.51-9.52c0.2-2.73,0.41-4.98,0.66-6.73c0.24-1.76,0.51-2.78,0.81-3.07c0.58-0.59,0.83-1.22,0.73-1.9
			c-0.1-0.68-0.54-1.02-1.32-1.02c-0.78,0-1.17,0.54-1.17,1.61c0,0.49-0.32,1.42-0.95,2.78c-0.64,1.37-1.39,2.73-2.27,4.1
			c-1.46,2.25-2.59,3.98-3.37,5.2c-0.78,1.22-1.46,2.1-2.05,2.63c-0.59,0.54-1.17,0.83-1.76,0.88c-0.59,0.05-1.37,0.07-2.34,0.07
			c-3.9,0-6.71-1.83-8.42-5.49c-1.71-3.66-2.56-9.74-2.56-18.23c0-3.02,0.07-5.46,0.22-7.32c0.15-1.85,0.39-3.32,0.73-4.39
			c0.34-1.07,0.81-1.8,1.39-2.2c0.58-0.39,1.32-0.59,2.2-0.59c0.88,0,1.61,0.2,2.2,0.59c0.59,0.39,1.05,1.1,1.39,2.12
			c0.34,1.02,0.59,2.42,0.73,4.17s0.22,4.05,0.22,6.88c0,4.1,0.07,6.76,0.22,7.98c0.15,1.22,0.47,1.83,0.96,1.83
			c0.78,0,1.74-0.88,2.87-2.64c1.13-1.76,2.23-4.1,3.31-7.03c0.49-1.27,1.15-2.71,1.99-4.32c0.83-1.61,1.74-3.15,2.72-4.61
			c0.98-1.46,1.91-2.76,2.8-3.88C70.63,401.51,71.37,400.8,71.96,400.51z"/>
		<path class="st4" d="M128.66,401.24l0.29-0.29c1.85-0.59,4.05-0.66,6.59-0.22c2.54,0.44,4.68,1.2,6.44,2.27
			c0.78,0.49,1.71,1.32,2.78,2.49c1.07,1.17,1.9,2.29,2.49,3.37c0.49,0.88,0.9,1.68,1.24,2.42c0.34,0.73,0.59,1.54,0.73,2.42
			c0.15,0.88,0.27,1.93,0.37,3.15c0.1,1.22,0.19,2.76,0.29,4.61c0.19,5.56,0.32,9.98,0.37,13.25c0.05,3.27-0.03,5.95-0.22,8.05
			c-0.2,2.1-0.51,3.9-0.95,5.42c-0.44,1.51-1.1,3.34-1.98,5.49c-0.98,2.34-1.76,4.17-2.34,5.49c-0.58,1.32-1.17,2.42-1.76,3.29
			c-0.58,0.88-1.24,1.64-1.98,2.27c-0.73,0.64-1.73,1.44-3,2.42c-2.54,1.85-4.71,3.07-6.51,3.66c-1.81,0.59-3.88,0.73-6.22,0.44
			c-3.32-0.49-6.22-2.07-8.71-4.76c-2.49-2.68-4.42-6-5.78-9.96c-1.37-3.95-2.08-8.34-2.12-13.18c-0.05-4.83,0.66-9.64,2.12-14.42
			c1.07-3.51,2.34-6.86,3.81-10.03c1.46-3.17,3-6,4.61-8.49s3.22-4.54,4.83-6.15S127.2,401.63,128.66,401.24z M135.25,410.61v0.29
			c0-1.17-0.44-1.66-1.32-1.46c-0.88,0.2-2,1.02-3.37,2.49c-2.73,2.93-5.05,6.29-6.95,10.1c-1.9,3.81-3.34,7.76-4.32,11.86
			c-0.98,4.1-1.44,8.13-1.39,12.08c0.05,3.95,0.71,7.49,1.98,10.61c2.54,6.25,5.71,8.54,9.52,6.88c2.15-0.88,4.07-2.51,5.78-4.9
			c1.71-2.39,3.2-5.44,4.46-9.15c0.49-1.46,0.88-2.73,1.17-3.81c0.29-1.07,0.49-2.1,0.58-3.07c0.1-0.97,0.15-2,0.15-3.07
			c0-1.07-0.05-2.39-0.15-3.95c-0.29-5.17-0.73-9.12-1.32-11.86c-0.59-2.73-1.46-5.22-2.63-7.47c-0.59-1.07-1.1-2.15-1.54-3.22
			C135.47,411.88,135.25,411.1,135.25,410.61z"/>
		<path class="st4" d="M203.17,404.32l-0.29,0.29c0.39-1.95,1.07-3.54,2.05-4.76c0.97-1.22,2.58-1.73,4.83-1.54
			c1.07,0.1,1.95,0.34,2.63,0.73c0.68,0.39,1.22,1.07,1.61,2.05c0.39,0.98,0.66,2.34,0.81,4.1s0.27,4,0.37,6.73
			c0.1,5.08,0.27,9.52,0.51,13.32c0.24,3.81,0.56,7.2,0.95,10.17c0.39,2.98,0.83,5.64,1.32,7.98c0.49,2.34,1.07,4.54,1.76,6.59
			c0.88,2.64,1.54,4.71,1.98,6.22c0.44,1.51,0.63,2.66,0.58,3.44c-0.05,0.78-0.32,1.27-0.8,1.46c-0.49,0.2-1.22,0.29-2.2,0.29
			c-2.05,0-4.08-1-6.08-3c-2-2-3.49-4.56-4.46-7.69c-0.78-2.54-1.46-4.27-2.05-5.2c-0.59-0.93-1.27-1.39-2.05-1.39
			c-0.59,0-1.17,0.66-1.76,1.98c-0.59,1.32-1.37,3.69-2.34,7.1c-0.78,3.03-1.98,5.64-3.59,7.83c-1.61,2.2-3.25,3.44-4.9,3.73
			c-6.64,1.37-11.37-2.58-14.2-11.86c-0.58-1.76-1-4.34-1.24-7.76c-0.25-3.42-0.37-7.1-0.37-11.05s0.12-7.83,0.37-11.64
			c0.24-3.81,0.66-6.98,1.24-9.52c0.88-4,1.83-6.68,2.85-8.05c1.03-1.37,2.51-2.05,4.47-2.05c5.56,0,7.17,4.39,4.83,13.18
			c-0.29,1.08-0.54,2.56-0.73,4.47c-0.2,1.9-0.34,4-0.44,6.29c-0.1,2.29-0.15,4.59-0.15,6.88c0,2.29,0.05,4.39,0.15,6.29
			c0.1,1.9,0.22,3.47,0.37,4.68c0.15,1.22,0.37,1.83,0.66,1.83c0.59,0,1.51-1.51,2.78-4.54c1.27-3.02,2.58-6.71,3.95-11.05
			c1.37-4.34,2.66-8.93,3.88-13.76C201.69,412.3,202.59,408.03,203.17,404.32z"/>
		<path class="st4" d="M263.05,400.51l-0.29-0.15c0.97-0.29,1.68-0.51,2.12-0.66c0.44-0.15,0.83-0.22,1.17-0.22
			c0.34,0,0.78,0.05,1.32,0.15c0.54,0.1,1.49,0.29,2.85,0.59c2.83,0.59,5.37,1.46,7.61,2.64c2.24,1.17,4.49,2.78,6.73,4.83
			c4.59,4.3,6.59,9.47,6,15.52c-0.2,2.05-0.46,3.78-0.81,5.2c-0.34,1.42-0.8,2.73-1.39,3.95c-0.59,1.22-1.34,2.42-2.27,3.59
			c-0.93,1.17-2.17,2.54-3.73,4.1c-1.66,1.76-3.03,3.37-4.1,4.83c-1.08,1.46-1.61,2.44-1.61,2.93c0,0.78,0.78,1.81,2.34,3.07
			c1.56,1.27,4.44,3.32,8.64,6.15c5.07,3.42,9.05,6.39,11.93,8.93c2.88,2.54,4.32,4.39,4.32,5.56c0,0.29-0.2,0.71-0.59,1.24
			c-0.39,0.54-0.86,1.05-1.39,1.54c-0.54,0.49-1.08,0.9-1.61,1.24c-0.54,0.34-0.9,0.46-1.1,0.37c-0.49-0.19-1.56-0.85-3.22-1.98
			c-1.66-1.12-3.66-2.46-6-4.03c-2.34-1.56-4.83-3.27-7.47-5.12c-2.64-1.85-5.08-3.61-7.32-5.27c-2.25-1.66-4.2-3.1-5.86-4.32
			c-1.66-1.22-2.69-2.02-3.08-2.42c-5.27-5.46-3.95-11.08,3.95-16.84c2.15-1.56,4.05-3.37,5.71-5.42c1.66-2.05,2.9-4.07,3.73-6.08
			c0.83-2,1.22-3.88,1.17-5.64c-0.05-1.76-0.66-3.17-1.83-4.25c-0.78-0.68-1.54-1.27-2.27-1.76c-0.73-0.49-1.51-0.85-2.34-1.1
			c-0.83-0.24-1.76-0.41-2.78-0.51c-1.02-0.1-2.27-0.15-3.73-0.15c-1.27,0-2.29,0.02-3.07,0.07c-0.78,0.05-1.44,0.15-1.98,0.29
			c-0.54,0.15-1,0.37-1.39,0.66c-0.39,0.29-0.78,0.64-1.17,1.02c-0.49,0.49-0.86,0.9-1.1,1.24c-0.24,0.34-0.39,0.76-0.44,1.24
			c-0.05,0.49-0.02,1.1,0.07,1.83c0.1,0.73,0.24,1.73,0.44,3c0.29,1.85,0.46,3.54,0.51,5.05c0.05,1.51-0.07,3-0.37,4.46
			c-0.29,1.66-0.44,3.2-0.44,4.61c0,1.42,0.24,3.15,0.73,5.2c0.39,1.95,0.63,3.51,0.73,4.69c0.1,1.17,0.1,2.29,0,3.37
			c-0.1,1.07-0.29,2.17-0.59,3.29c-0.29,1.12-0.58,2.56-0.88,4.32c-0.48,3.03-1.01,5.03-1.58,6c-0.58,0.98-1.54,1.46-2.88,1.46
			c-0.96,0-1.7-0.19-2.23-0.59c-0.53-0.39-0.94-1.46-1.22-3.22s-0.53-4.42-0.72-7.98c-0.19-3.56-0.34-8.51-0.43-14.86
			c-0.1-3.32-0.2-6.52-0.29-9.59c-0.1-3.07-0.17-5.86-0.22-8.34c-0.05-2.49-0.12-4.54-0.22-6.15c-0.1-1.61-0.2-2.66-0.29-3.15
			c-0.2-1.07-0.25-2.07-0.15-3c0.1-0.93,0.34-1.68,0.73-2.27c0.48-0.88,1.04-1.44,1.66-1.68c0.62-0.24,1.99-0.41,4.11-0.51
			c1.34-0.1,2.79-0.24,4.35-0.44C261.1,400.9,262.27,400.71,263.05,400.51z"/>
		<path class="st4" d="M352.65,401.54v-0.29c1.27-0.49,2.58-0.9,3.95-1.24c1.37-0.34,2.66-0.54,3.88-0.59
			c1.22-0.05,2.29,0,3.22,0.15c0.93,0.15,1.58,0.42,1.98,0.81c0.29,0.29,0.51,0.78,0.66,1.46c0.15,0.68,0.22,1.39,0.22,2.12
			c0,0.73-0.07,1.42-0.22,2.05c-0.15,0.64-0.37,1.1-0.66,1.39c-0.78,0.59-2.1,1.12-3.95,1.61c-1.37,0.39-2.88,1-4.54,1.83
			c-1.66,0.83-3.29,1.81-4.9,2.93c-1.61,1.12-3.12,2.29-4.54,3.51c-1.42,1.22-2.51,2.37-3.29,3.44c-0.88,1.17-1.64,2.25-2.27,3.22
			c-0.64,0.98-0.95,1.56-0.95,1.76c0,0.78,0.88,1.64,2.63,2.56c1.76,0.93,4.15,1.78,7.17,2.56c5.76,1.66,10.66,3.81,14.71,6.44
			c4.05,2.64,7.05,5.49,9,8.56c1.95,3.07,2.76,6.22,2.42,9.44c-0.34,3.22-2.03,6.2-5.05,8.93c-5.17,4.78-12.05,7.96-20.64,9.52
			c-4.78,0.88-8.25,1.05-10.39,0.51c-2.15-0.54-3.86-2.04-5.12-4.52c-1.27-2.38-1.54-3.94-0.81-4.68c0.73-0.74,2.8-1.02,6.22-0.82
			c2.05,0.1,4.15-0.05,6.29-0.44c2.15-0.39,4.25-0.93,6.29-1.61c2.05-0.68,3.98-1.53,5.78-2.56c1.8-1.02,3.39-2.17,4.76-3.43
			c2.54-2.43,3.78-4.33,3.73-5.7c-0.05-1.36-1.49-3.07-4.32-5.11c-2.05-1.56-4.54-2.87-7.47-3.94c-2.93-1.07-6.64-2.1-11.13-3.07
			c-3.42-0.78-5.98-1.63-7.69-2.56c-1.71-0.92-3.15-2.31-4.32-4.16c-4-6.03-3.47-12.02,1.61-17.96c0.88-1.07,2.02-2.19,3.44-3.36
			c1.41-1.17,2.93-2.29,4.54-3.36c1.61-1.07,3.24-2.09,4.9-3.07C349.47,402.9,351.08,402.12,352.65,401.54z"/>
		<path class="st4" d="M430.09,399.93l0.15,0.29c0.88-0.29,1.85-0.49,2.93-0.59c1.07-0.1,2.12-0.15,3.15-0.15
			c1.03,0,1.95,0.07,2.78,0.22c0.83,0.15,1.49,0.37,1.98,0.66c0.68,0.49,0.85,1.17,0.51,2.05c-0.34,0.88-1.15,1.86-2.42,2.93
			c-0.58,0.59-1.71,1.34-3.37,2.27c-1.66,0.93-3.47,1.88-5.42,2.85c-1.95,0.98-3.83,1.85-5.64,2.63c-1.81,0.78-3.15,1.27-4.03,1.46
			c-1.17,0.29-2.25,1.02-3.22,2.2c-0.98,1.17-1.78,2.44-2.42,3.81c-0.64,1.37-1,2.73-1.1,4.1c-0.1,1.37,0.19,2.39,0.88,3.07
			c0.59,0.59,1.27,0.93,2.05,1.02c0.78,0.1,2.29-0.1,4.54-0.59c3.42-0.59,5.86-0.75,7.32-0.51c1.46,0.24,2.2,0.95,2.2,2.12
			c0,2.73-3.61,5.91-10.83,9.52l-6,2.93l-0.29,8.49c-0.1,1.95-0.15,3.51-0.15,4.68c0,1.17,0.05,2.12,0.15,2.85
			c0.1,0.73,0.27,1.32,0.51,1.76c0.24,0.44,0.56,0.86,0.95,1.24c0.59,0.59,1.15,1.02,1.68,1.32c0.54,0.29,1.22,0.42,2.05,0.37
			c0.83-0.05,1.9-0.32,3.22-0.81c1.32-0.49,3.1-1.17,5.34-2.05c4-1.56,6.9-2.42,8.71-2.56c1.8-0.15,3.1,0.37,3.88,1.54
			c0.58,0.88,0.19,2.12-1.17,3.73c-1.37,1.61-3.22,3.22-5.56,4.83c-2.34,1.61-4.88,3.05-7.61,4.32c-2.73,1.27-5.22,2.05-7.47,2.34
			c-1.66,0.2-2.88,0.15-3.66-0.15c-0.78-0.29-2-1.07-3.66-2.34c-1.08-0.78-2.15-1.8-3.22-3.07c-1.07-1.27-1.9-2.54-2.49-3.81
			c-0.49-0.97-0.88-1.85-1.17-2.64c-0.29-0.78-0.49-1.9-0.59-3.37c-0.1-1.46-0.15-3.51-0.15-6.15c0-2.63,0-6.29,0-10.98
			c0-5.76,0.05-10.71,0.15-14.86c0.1-4.15,0.19-7.56,0.29-10.25c0.1-2.68,0.24-4.73,0.44-6.15c0.19-1.41,0.39-2.27,0.58-2.56
			c0.19-0.29,0.81-0.63,1.83-1.02c1.02-0.39,2.17-0.78,3.44-1.17c1.37-0.39,2.93-0.83,4.68-1.32c1.76-0.49,3.54-1.02,5.34-1.61
			c1.8-0.59,3.56-1.12,5.27-1.61C427.18,400.76,428.72,400.32,430.09,399.93z"/>
		<path class="st4" d="M470.64,405.78v-0.29c0.39-0.59,0.97-0.95,1.76-1.1c0.78-0.15,1.59-0.15,2.42,0
			c0.83,0.15,1.63,0.44,2.42,0.88c0.78,0.44,1.46,1,2.05,1.68c0.39,0.59,0.71,1.15,0.95,1.68c0.24,0.54,0.41,1.34,0.51,2.42
			c0.1,1.08,0.15,2.54,0.15,4.39c0,1.85,0,4.39,0,7.61c0,1.95-0.02,4.12-0.07,6.52c-0.05,2.39-0.12,4.83-0.22,7.32
			c-0.1,2.49-0.17,4.93-0.22,7.32c-0.05,2.39-0.12,4.52-0.22,6.37l-0.59,13.76l2.78,1.76c0.78,0.49,1.51,0.86,2.2,1.1
			c0.68,0.24,1.61,0.37,2.78,0.37c1.17,0,2.78-0.12,4.83-0.37c2.05-0.24,4.78-0.61,8.2-1.1c4.39-0.68,7.61-0.97,9.66-0.88
			c2.05,0.1,3.46,0.54,4.25,1.32c0.49,0.49,0.78,0.93,0.88,1.32c0.1,0.39-0.1,0.98-0.59,1.76c-0.78,1.46-2.1,2.64-3.95,3.51
			c-1.85,0.88-4.93,1.71-9.22,2.49c-2.54,0.49-5.2,0.83-7.98,1.02c-2.78,0.2-5.44,0.24-7.98,0.15c-2.54-0.1-4.83-0.34-6.88-0.73
			c-2.05-0.39-3.56-0.88-4.54-1.46c-1.27-0.78-2.29-1.58-3.07-2.42c-0.78-0.83-1.39-1.8-1.83-2.93c-0.44-1.12-0.73-2.49-0.88-4.1
			c-0.15-1.61-0.22-3.59-0.22-5.93c0.29-16.69,0.68-29.6,1.17-38.72C469.66,411.37,470.15,406.47,470.64,405.78z"/>
		<path class="st4" d="M562.14,396.85l0.15,0.29c3.71-0.49,6.51-0.63,8.42-0.44c1.9,0.2,3.2,0.78,3.88,1.76
			c1.46,2.34-2.1,5.17-10.69,8.49l-7.76,3.07v8.49c0,2.64,0.05,4.68,0.15,6.15c0.1,1.46,0.37,2.49,0.81,3.07
			c0.44,0.59,1.1,0.81,1.98,0.66c0.88-0.15,2.05-0.51,3.51-1.1c2.34-0.97,4.56-1.73,6.66-2.27c2.1-0.54,3.95-0.83,5.56-0.88
			c1.61-0.05,2.88,0.15,3.81,0.59c0.93,0.44,1.39,1.1,1.39,1.98c0,0.59-0.27,1.27-0.81,2.05c-0.54,0.78-1.27,1.56-2.2,2.34
			c-0.93,0.78-2,1.54-3.22,2.27c-1.22,0.73-2.47,1.29-3.73,1.68c-1.17,0.49-2.56,1.15-4.17,1.98c-1.61,0.83-2.95,1.64-4.03,2.42
			c-0.88,0.68-1.59,1.24-2.12,1.68c-0.54,0.44-0.9,0.88-1.1,1.32c-0.2,0.44-0.32,0.93-0.37,1.46c-0.05,0.54-0.03,1.24,0.07,2.12
			c0.1,0.98,0.17,2.66,0.22,5.05c0.05,2.39,0.12,4.81,0.22,7.25c0,2.15,0,3.83,0,5.05c0,1.22-0.07,2.2-0.22,2.93
			s-0.37,1.29-0.66,1.68c-0.29,0.39-0.73,0.88-1.32,1.46c-1.27,1.46-2.39,2-3.37,1.61c-1.08-0.39-1.95-1.32-2.63-2.78
			c-0.68-1.46-1.32-3.88-1.9-7.25c-0.59-3.37-1.12-7.83-1.61-13.4c-0.49-5.56-1.03-12.64-1.61-21.23c-0.2-3.42-0.49-6.39-0.88-8.93
			c-0.39-2.54-0.83-4.39-1.32-5.56c-1.27-3.12-1.9-5.39-1.9-6.81c0-1.41,0.54-2.51,1.61-3.29c0.59-0.39,1.51-0.83,2.78-1.32
			c1.27-0.49,2.76-0.95,4.47-1.39c1.71-0.44,3.59-0.85,5.64-1.24C557.89,397.49,559.99,397.14,562.14,396.85z"/>
	</g>
	<g>
		<path class="st4" d="M213.78,129.15h-77.72V105.3c0-11.13-0.99-18.22-2.98-21.27c-1.99-3.05-5.3-4.57-9.94-4.57
			c-5.04,0-8.85,2.06-11.43,6.17c-2.58,4.11-3.88,10.34-3.88,18.7c0,10.74,1.45,18.83,4.36,24.27c2.77,5.44,10.66,12,23.65,19.67
			c37.25,22.11,60.71,40.25,70.39,54.43c9.67,14.18,14.51,37.04,14.51,68.58c0,22.93-2.68,39.82-8.05,50.69
			c-5.37,10.87-15.74,19.98-31.11,27.33c-15.37,7.35-33.26,11.03-53.67,11.03c-22.4,0-41.51-4.24-57.35-12.72
			c-15.84-8.48-26.21-19.28-31.11-32.4c-4.9-13.12-7.35-31.73-7.35-55.85v-21.07h77.72v39.16c0,12.06,1.09,19.81,3.28,23.26
			c2.19,3.45,6.06,5.17,11.63,5.17c5.57,0,9.71-2.19,12.42-6.56c2.71-4.37,4.08-10.86,4.08-19.48c0-18.95-2.58-31.34-7.75-37.17
			c-5.3-5.83-18.36-15.57-39.16-29.22c-20.8-13.78-34.58-23.78-41.34-30.01c-6.76-6.23-12.36-14.84-16.8-25.84
			c-4.44-11-6.66-25.04-6.66-42.14c0-24.65,3.15-42.67,9.44-54.06c6.29-11.4,16.46-20.31,30.51-26.73
			C83.52,28.21,100.48,25,120.36,25c21.73,0,40.25,3.51,55.56,10.53c15.3,7.03,25.44,15.87,30.41,26.54
			c4.97,10.67,7.45,28.79,7.45,54.36V129.15z"/>
	</g>
</g>
</svg>
