<?xml version="1.0" encoding="UTF-8" standalone="no"?>
<!DOCTYPE svg PUBLIC "-//W3C//DTD SVG 1.1//EN"
 "http://www.w3.org/Graphics/SVG/1.1/DTD/svg11.dtd">
<!-- Generated by graphviz version 2.40.1 (20161225.0304)
 -->
<!-- Title: dependencies Pages: 1 -->
<svg width="748pt" height="284pt"
 viewBox="0.00 0.00 748.00 284.00" xmlns="http://www.w3.org/2000/svg" xmlns:xlink="http://www.w3.org/1999/xlink">
<g id="graph0" class="graph" transform="scale(1 1) rotate(0) translate(4 280)">
<title>dependencies</title>
<polygon fill="#ffffff" stroke="transparent" points="-4,4 -4,-280 744,-280 744,4 -4,4"/>
<text text-anchor="start" x="349.0091" y="-42.4" font-family="sans-serif" font-weight="bold" font-size="14.00" fill="#000000">Legend</text>
<polygon fill="#ffffb3" stroke="transparent" points="136,-10 136,-30 156,-30 156,-10 136,-10"/>
<text text-anchor="start" x="159.629" y="-15.4" font-family="sans-serif" font-size="14.00" fill="#000000"> &#160;Declarations</text>
<polygon fill="#8dd3c7" stroke="transparent" points="249,-10 249,-30 269,-30 269,-10 249,-10"/>
<text text-anchor="start" x="272.7251" y="-15.4" font-family="sans-serif" font-size="14.00" fill="#000000"> &#160;Module</text>
<polygon fill="#80b1d3" stroke="transparent" points="335,-10 335,-30 355,-30 355,-10 335,-10"/>
<text text-anchor="start" x="358.7812" y="-15.4" font-family="sans-serif" font-size="14.00" fill="#000000"> &#160;Bootstrap</text>
<polygon fill="#fdb462" stroke="transparent" points="432,-10 432,-30 452,-30 452,-10 432,-10"/>
<text text-anchor="start" x="455.6732" y="-15.4" font-family="sans-serif" font-size="14.00" fill="#000000"> &#160;Providers</text>
<polygon fill="#fb8072" stroke="transparent" points="528,-10 528,-30 548,-30 548,-10 528,-10"/>
<text text-anchor="start" x="551.7258" y="-15.4" font-family="sans-serif" font-size="14.00" fill="#000000"> &#160;Exports</text>
<g id="clust1" class="cluster">
<title>cluster_SharedModule</title>
<polygon fill="none" stroke="#000000" stroke-dasharray="1,5" points="8,-70 8,-268 732,-268 732,-70 8,-70"/>
</g>
<g id="clust2" class="cluster">
<title>cluster_SharedModule_declarations</title>
<polygon fill="none" stroke="#000000" points="146,-78 146,-130 724,-130 724,-78 146,-78"/>
</g>
<g id="clust7" class="cluster">
<title>cluster_SharedModule_imports</title>
<polygon fill="none" stroke="#000000" points="16,-78 16,-130 138,-130 138,-78 16,-78"/>
</g>
<g id="clust8" class="cluster">
<title>cluster_SharedModule_exports</title>
<polygon fill="none" stroke="#000000" points="74,-208 74,-260 666,-260 666,-208 74,-208"/>
</g>
<!-- LoginComponent -->
<g id="node1" class="node">
<title>LoginComponent</title>
<polygon fill="#ffffb3" stroke="#000000" points="716.2758,-122 601.7242,-122 601.7242,-86 716.2758,-86 716.2758,-122"/>
<text text-anchor="middle" x="659" y="-99.8" font-family="Times,serif" font-size="14.00" fill="#000000">LoginComponent</text>
</g>
<!-- SharedModule -->
<g id="node5" class="node">
<title>SharedModule</title>
<polygon fill="#8dd3c7" stroke="#000000" points="413.4231,-187 410.4231,-191 389.4231,-191 386.4231,-187 314.5769,-187 314.5769,-151 413.4231,-151 413.4231,-187"/>
<text text-anchor="middle" x="364" y="-164.8" font-family="Times,serif" font-size="14.00" fill="#000000">SharedModule</text>
</g>
<!-- LoginComponent&#45;&gt;SharedModule -->
<g id="edge1" class="edge">
<title>LoginComponent&#45;&gt;SharedModule</title>
<path fill="none" stroke="#000000" d="M629.875,-122.1061C629.875,-141.3391 629.875,-169 629.875,-169 629.875,-169 423.3859,-169 423.3859,-169"/>
<polygon fill="#000000" stroke="#000000" points="423.386,-165.5001 413.3859,-169 423.3859,-172.5001 423.386,-165.5001"/>
</g>
<!-- NavMainComponent -->
<g id="node2" class="node">
<title>NavMainComponent</title>
<polygon fill="#ffffb3" stroke="#000000" points="584.2036,-122 449.7964,-122 449.7964,-86 584.2036,-86 584.2036,-122"/>
<text text-anchor="middle" x="517" y="-99.8" font-family="Times,serif" font-size="14.00" fill="#000000">NavMainComponent</text>
</g>
<!-- NavMainComponent&#45;&gt;SharedModule -->
<g id="edge2" class="edge">
<title>NavMainComponent&#45;&gt;SharedModule</title>
<path fill="none" stroke="#000000" d="M485.875,-122.027C485.875,-138.3976 485.875,-160 485.875,-160 485.875,-160 423.2199,-160 423.2199,-160"/>
<polygon fill="#000000" stroke="#000000" points="423.22,-156.5001 413.2199,-160 423.2199,-163.5001 423.22,-156.5001"/>
</g>
<!-- PasswordComponent -->
<g id="node3" class="node">
<title>PasswordComponent</title>
<polygon fill="#ffffb3" stroke="#000000" points="431.486,-122 296.514,-122 296.514,-86 431.486,-86 431.486,-122"/>
<text text-anchor="middle" x="364" y="-99.8" font-family="Times,serif" font-size="14.00" fill="#000000">PasswordComponent</text>
</g>
<!-- PasswordComponent&#45;&gt;SharedModule -->
<g id="edge3" class="edge">
<title>PasswordComponent&#45;&gt;SharedModule</title>
<path fill="none" stroke="#000000" d="M364,-122.1061C364,-122.1061 364,-140.991 364,-140.991"/>
<polygon fill="#000000" stroke="#000000" points="360.5001,-140.9909 364,-150.991 367.5001,-140.991 360.5001,-140.9909"/>
</g>
<!-- SignUpComponent -->
<g id="node4" class="node">
<title>SignUpComponent</title>
<polygon fill="#ffffb3" stroke="#000000" points="278.1123,-122 153.8877,-122 153.8877,-86 278.1123,-86 278.1123,-122"/>
<text text-anchor="middle" x="216" y="-99.8" font-family="Times,serif" font-size="14.00" fill="#000000">SignUpComponent</text>
</g>
<!-- SignUpComponent&#45;&gt;SharedModule -->
<g id="edge4" class="edge">
<title>SignUpComponent&#45;&gt;SharedModule</title>
<path fill="none" stroke="#000000" d="M252.9066,-122.027C252.9066,-138.3976 252.9066,-160 252.9066,-160 252.9066,-160 304.6258,-160 304.6258,-160"/>
<polygon fill="#000000" stroke="#000000" points="304.6259,-163.5001 314.6258,-160 304.6258,-156.5001 304.6259,-163.5001"/>
</g>
<!-- LoginComponent  -->
<g id="node7" class="node">
<title>LoginComponent </title>
<polygon fill="#fb8072" stroke="#000000" points="658.2759,-252 539.7241,-252 539.7241,-216 658.2759,-216 658.2759,-252"/>
<text text-anchor="middle" x="599" y="-229.8" font-family="Times,serif" font-size="14.00" fill="#000000">LoginComponent </text>
</g>
<!-- SharedModule&#45;&gt;LoginComponent  -->
<g id="edge6" class="edge">
<title>SharedModule&#45;&gt;LoginComponent </title>
<path fill="none" stroke="#000000" stroke-dasharray="5,2" d="M413.4485,-178C472.0894,-178 561.982,-178 561.982,-178 561.982,-178 561.982,-205.973 561.982,-205.973"/>
<polygon fill="#000000" stroke="#000000" points="558.482,-205.973 561.982,-215.973 565.482,-205.973 558.482,-205.973"/>
</g>
<!-- NavMainComponent  -->
<g id="node8" class="node">
<title>NavMainComponent </title>
<polygon fill="#fb8072" stroke="#000000" points="521.7037,-252 384.2963,-252 384.2963,-216 521.7037,-216 521.7037,-252"/>
<text text-anchor="middle" x="453" y="-229.8" font-family="Times,serif" font-size="14.00" fill="#000000">NavMainComponent </text>
</g>
<!-- SharedModule&#45;&gt;NavMainComponent  -->
<g id="edge7" class="edge">
<title>SharedModule&#45;&gt;NavMainComponent </title>
<path fill="none" stroke="#000000" stroke-dasharray="5,2" d="M398.6797,-187.1061C398.6797,-187.1061 398.6797,-205.991 398.6797,-205.991"/>
<polygon fill="#000000" stroke="#000000" points="395.1798,-205.9909 398.6797,-215.991 402.1798,-205.991 395.1798,-205.9909"/>
</g>
<!-- PasswordComponent  -->
<g id="node9" class="node">
<title>PasswordComponent </title>
<polygon fill="#fb8072" stroke="#000000" points="366.4869,-252 227.5131,-252 227.5131,-216 366.4869,-216 366.4869,-252"/>
<text text-anchor="middle" x="297" y="-229.8" font-family="Times,serif" font-size="14.00" fill="#000000">PasswordComponent </text>
</g>
<!-- SharedModule&#45;&gt;PasswordComponent  -->
<g id="edge8" class="edge">
<title>SharedModule&#45;&gt;PasswordComponent </title>
<path fill="none" stroke="#000000" stroke-dasharray="5,2" d="M340.5159,-187.1061C340.5159,-187.1061 340.5159,-205.991 340.5159,-205.991"/>
<polygon fill="#000000" stroke="#000000" points="337.016,-205.9909 340.5159,-215.991 344.016,-205.991 337.016,-205.9909"/>
</g>
<!-- SignUpComponent  -->
<g id="node10" class="node">
<title>SignUpComponent </title>
<polygon fill="#fb8072" stroke="#000000" points="209.6128,-252 82.3872,-252 82.3872,-216 209.6128,-216 209.6128,-252"/>
<text text-anchor="middle" x="146" y="-229.8" font-family="Times,serif" font-size="14.00" fill="#000000">SignUpComponent </text>
</g>
<!-- SharedModule&#45;&gt;SignUpComponent  -->
<g id="edge9" class="edge">
<title>SharedModule&#45;&gt;SignUpComponent </title>
<path fill="none" stroke="#000000" stroke-dasharray="5,2" d="M314.7144,-178C260.7773,-178 181.875,-178 181.875,-178 181.875,-178 181.875,-205.973 181.875,-205.973"/>
<polygon fill="#000000" stroke="#000000" points="178.3751,-205.973 181.875,-215.973 185.3751,-205.973 178.3751,-205.973"/>
</g>
<!-- MaterialModule -->
<g id="node6" class="node">
<title>MaterialModule</title>
<polygon fill="#8dd3c7" stroke="#000000" points="130.4706,-122 127.4706,-126 106.4706,-126 103.4706,-122 23.5294,-122 23.5294,-86 130.4706,-86 130.4706,-122"/>
<text text-anchor="middle" x="77" y="-99.8" font-family="Times,serif" font-size="14.00" fill="#000000">MaterialModule</text>
</g>
<!-- MaterialModule&#45;&gt;SharedModule -->
<g id="edge5" class="edge">
<title>MaterialModule&#45;&gt;SharedModule</title>
<path fill="none" stroke="#000000" d="M106.3396,-122.1061C106.3396,-141.3391 106.3396,-169 106.3396,-169 106.3396,-169 304.6253,-169 304.6253,-169"/>
<polygon fill="#000000" stroke="#000000" points="304.6254,-172.5001 314.6253,-169 304.6253,-165.5001 304.6254,-172.5001"/>
</g>
</g>
</svg>
