<?xml version="1.0" encoding="UTF-8" standalone="no"?>
<!DOCTYPE svg PUBLIC "-//W3C//DTD SVG 1.1//EN"
 "http://www.w3.org/Graphics/SVG/1.1/DTD/svg11.dtd">
<!-- Generated by graphviz version 2.40.1 (20161225.0304)
 -->
<!-- Title: dependencies Pages: 1 -->
<svg width="4672pt" height="436pt"
 viewBox="0.00 0.00 4672.00 436.00" xmlns="http://www.w3.org/2000/svg" xmlns:xlink="http://www.w3.org/1999/xlink">
<g id="graph0" class="graph" transform="scale(1 1) rotate(0) translate(4 432)">
<title>dependencies</title>
<polygon fill="#ffffff" stroke="transparent" points="-4,4 -4,-432 4668,-432 4668,4 -4,4"/>
<text text-anchor="start" x="2311.0091" y="-42.4" font-family="sans-serif" font-weight="bold" font-size="14.00" fill="#000000">Legend</text>
<polygon fill="#ffffb3" stroke="transparent" points="2098,-10 2098,-30 2118,-30 2118,-10 2098,-10"/>
<text text-anchor="start" x="2121.629" y="-15.4" font-family="sans-serif" font-size="14.00" fill="#000000"> &#160;Declarations</text>
<polygon fill="#8dd3c7" stroke="transparent" points="2211,-10 2211,-30 2231,-30 2231,-10 2211,-10"/>
<text text-anchor="start" x="2234.7251" y="-15.4" font-family="sans-serif" font-size="14.00" fill="#000000"> &#160;Module</text>
<polygon fill="#80b1d3" stroke="transparent" points="2297,-10 2297,-30 2317,-30 2317,-10 2297,-10"/>
<text text-anchor="start" x="2320.7812" y="-15.4" font-family="sans-serif" font-size="14.00" fill="#000000"> &#160;Bootstrap</text>
<polygon fill="#fdb462" stroke="transparent" points="2394,-10 2394,-30 2414,-30 2414,-10 2394,-10"/>
<text text-anchor="start" x="2417.6732" y="-15.4" font-family="sans-serif" font-size="14.00" fill="#000000"> &#160;Providers</text>
<polygon fill="#fb8072" stroke="transparent" points="2490,-10 2490,-30 2510,-30 2510,-10 2490,-10"/>
<text text-anchor="start" x="2513.7258" y="-15.4" font-family="sans-serif" font-size="14.00" fill="#000000"> &#160;Exports</text>
<g id="clust1" class="cluster">
<title>cluster_AdminModule</title>
<polygon fill="none" stroke="#000000" stroke-dasharray="1,5" points="3861,-146 3861,-282 4285,-282 4285,-146 3861,-146"/>
</g>
<g id="clust2" class="cluster">
<title>cluster_AdminModule_declarations</title>
<polygon fill="none" stroke="#000000" points="3869,-154 3869,-206 4005,-206 4005,-154 3869,-154"/>
</g>
<g id="clust4" class="cluster">
<title>cluster_AdminModule_imports</title>
<polygon fill="none" stroke="#000000" points="4013,-154 4013,-206 4277,-206 4277,-154 4013,-154"/>
</g>
<g id="clust14" class="cluster">
<title>cluster_AppModule</title>
<polygon fill="none" stroke="#000000" stroke-dasharray="1,5" points="1961,-70 1961,-420 2652,-420 2652,-70 1961,-70"/>
</g>
<g id="clust15" class="cluster">
<title>cluster_AppModule_declarations</title>
<polygon fill="none" stroke="#000000" points="2246,-230 2246,-282 2644,-282 2644,-230 2246,-230"/>
</g>
<g id="clust19" class="cluster">
<title>cluster_AppModule_imports</title>
<polygon fill="none" stroke="#000000" points="1969,-78 1969,-282 2238,-282 2238,-78 1969,-78"/>
</g>
<g id="clust21" class="cluster">
<title>cluster_AppModule_bootstrap</title>
<polygon fill="none" stroke="#000000" points="2213,-360 2213,-412 2337,-412 2337,-360 2213,-360"/>
</g>
<g id="clust29" class="cluster">
<title>cluster_BusinessModule</title>
<polygon fill="none" stroke="#000000" stroke-dasharray="1,5" points="4492,-70 4492,-206 4656,-206 4656,-70 4492,-70"/>
</g>
<g id="clust30" class="cluster">
<title>cluster_BusinessModule_declarations</title>
<polygon fill="none" stroke="#000000" points="4500,-78 4500,-130 4648,-130 4648,-78 4500,-78"/>
</g>
<g id="clust36" class="cluster">
<title>cluster_CoreModule</title>
<polygon fill="none" stroke="#000000" stroke-dasharray="1,5" points="1739,-70 1739,-138 1953,-138 1953,-70 1739,-70"/>
</g>
<g id="clust41" class="cluster">
<title>cluster_CoreModule_providers</title>
<polygon fill="none" stroke="#000000" points="1747,-78 1747,-130 1945,-130 1945,-78 1747,-78"/>
</g>
<g id="clust42" class="cluster">
<title>cluster_HomeModule</title>
<polygon fill="none" stroke="#000000" stroke-dasharray="1,5" points="8,-146 8,-214 1953,-214 1953,-146 8,-146"/>
</g>
<g id="clust43" class="cluster">
<title>cluster_HomeModule_declarations</title>
<polygon fill="none" stroke="#000000" points="178,-154 178,-206 1945,-206 1945,-154 178,-154"/>
</g>
<g id="clust54" class="cluster">
<title>cluster_HomeModule_imports</title>
<polygon fill="none" stroke="#000000" points="16,-154 16,-206 170,-206 170,-154 16,-154"/>
</g>
<g id="clust70" class="cluster">
<title>cluster_SharedModule</title>
<polygon fill="none" stroke="#000000" stroke-dasharray="1,5" points="2660,-222 2660,-290 3853,-290 3853,-222 2660,-222"/>
</g>
<g id="clust71" class="cluster">
<title>cluster_SharedModule_declarations</title>
<polygon fill="none" stroke="#000000" points="3268,-230 3268,-282 3845,-282 3845,-230 3268,-230"/>
</g>
<g id="clust77" class="cluster">
<title>cluster_SharedModule_exports</title>
<polygon fill="none" stroke="#000000" points="2668,-230 2668,-282 3260,-282 3260,-230 2668,-230"/>
</g>
<g id="clust80" class="cluster">
<title>cluster_UserModule</title>
<polygon fill="none" stroke="#000000" stroke-dasharray="1,5" points="3966,-70 3966,-138 4484,-138 4484,-70 3966,-70"/>
</g>
<g id="clust81" class="cluster">
<title>cluster_UserModule_declarations</title>
<polygon fill="none" stroke="#000000" points="4308,-78 4308,-130 4476,-130 4476,-78 4308,-78"/>
</g>
<g id="clust83" class="cluster">
<title>cluster_UserModule_imports</title>
<polygon fill="none" stroke="#000000" points="4152,-78 4152,-130 4300,-130 4300,-78 4152,-78"/>
</g>
<g id="clust84" class="cluster">
<title>cluster_UserModule_exports</title>
<polygon fill="none" stroke="#000000" points="3974,-78 3974,-130 4144,-130 4144,-78 3974,-78"/>
</g>
<!-- AdminComponent -->
<g id="node1" class="node">
<title>AdminComponent</title>
<polygon fill="#ffffb3" stroke="#000000" points="3997.2204,-198 3876.7796,-198 3876.7796,-162 3997.2204,-162 3997.2204,-198"/>
<text text-anchor="middle" x="3937" y="-175.8" font-family="Times,serif" font-size="14.00" fill="#000000">AdminComponent</text>
</g>
<!-- AdminModule -->
<g id="node2" class="node">
<title>AdminModule</title>
<polygon fill="#8dd3c7" stroke="#000000" points="4039.4386,-274 4036.4386,-278 4015.4386,-278 4012.4386,-274 3940.5614,-274 3940.5614,-238 4039.4386,-238 4039.4386,-274"/>
<text text-anchor="middle" x="3990" y="-251.8" font-family="Times,serif" font-size="14.00" fill="#000000">AdminModule</text>
</g>
<!-- AdminComponent&#45;&gt;AdminModule -->
<g id="edge1" class="edge">
<title>AdminComponent&#45;&gt;AdminModule</title>
<path fill="none" stroke="#000000" d="M3968.9457,-198.0109C3968.9457,-198.0109 3968.9457,-227.855 3968.9457,-227.855"/>
<polygon fill="#000000" stroke="#000000" points="3965.4457,-227.8549 3968.9457,-237.855 3972.4457,-227.855 3965.4457,-227.8549"/>
</g>
<!-- AppModule -->
<g id="node8" class="node">
<title>AppModule</title>
<polygon fill="#8dd3c7" stroke="#000000" points="2316.6571,-339 2313.6571,-343 2292.6571,-343 2289.6571,-339 2233.3429,-339 2233.3429,-303 2316.6571,-303 2316.6571,-339"/>
<text text-anchor="middle" x="2275" y="-316.8" font-family="Times,serif" font-size="14.00" fill="#000000">AppModule</text>
</g>
<!-- AdminModule&#45;&gt;AppModule -->
<g id="edge7" class="edge">
<title>AdminModule&#45;&gt;AppModule</title>
<path fill="none" stroke="#000000" d="M3990,-274.1289C3990,-294.5724 3990,-325 3990,-325 3990,-325 2326.9676,-325 2326.9676,-325"/>
<polygon fill="#000000" stroke="#000000" points="2326.9676,-321.5001 2316.9676,-325 2326.9676,-328.5001 2326.9676,-321.5001"/>
</g>
<!-- AdminRoutingModule -->
<g id="node3" class="node">
<title>AdminRoutingModule</title>
<polygon fill="#8dd3c7" stroke="#000000" points="4164.5561,-198 4161.5561,-202 4140.5561,-202 4137.5561,-198 4021.4439,-198 4021.4439,-162 4164.5561,-162 4164.5561,-198"/>
<text text-anchor="middle" x="4093" y="-175.8" font-family="Times,serif" font-size="14.00" fill="#000000">AdminRoutingModule</text>
</g>
<!-- AdminRoutingModule&#45;&gt;AdminModule -->
<g id="edge2" class="edge">
<title>AdminRoutingModule&#45;&gt;AdminModule</title>
<path fill="none" stroke="#000000" d="M4030.2206,-198.0109C4030.2206,-198.0109 4030.2206,-227.855 4030.2206,-227.855"/>
<polygon fill="#000000" stroke="#000000" points="4026.7206,-227.8549 4030.2206,-237.855 4033.7206,-227.855 4026.7206,-227.8549"/>
</g>
<!-- UserModule -->
<g id="node4" class="node">
<title>UserModule</title>
<polygon fill="#8dd3c7" stroke="#000000" points="4268.9762,-198 4265.9762,-202 4244.9762,-202 4241.9762,-198 4183.0238,-198 4183.0238,-162 4268.9762,-162 4268.9762,-198"/>
<text text-anchor="middle" x="4226" y="-175.8" font-family="Times,serif" font-size="14.00" fill="#000000">UserModule</text>
</g>
<!-- UserModule&#45;&gt;AdminModule -->
<g id="edge3" class="edge">
<title>UserModule&#45;&gt;AdminModule</title>
<path fill="none" stroke="#000000" d="M4211.6706,-198.0109C4211.6706,-220.4852 4211.6706,-256 4211.6706,-256 4211.6706,-256 4049.4713,-256 4049.4713,-256"/>
<polygon fill="#000000" stroke="#000000" points="4049.4713,-252.5001 4039.4713,-256 4049.4713,-259.5001 4049.4713,-252.5001"/>
</g>
<!-- UserModule&#45;&gt;AppModule -->
<g id="edge13" class="edge">
<title>UserModule&#45;&gt;AppModule</title>
<path fill="none" stroke="#000000" d="M4240.3294,-198.0333C4240.3294,-238.2965 4240.3294,-332 4240.3294,-332 4240.3294,-332 2326.9579,-332 2326.9579,-332"/>
<polygon fill="#000000" stroke="#000000" points="2326.958,-328.5001 2316.9579,-332 2326.9579,-335.5001 2326.958,-328.5001"/>
</g>
<!-- UserDisplayComponent  -->
<g id="node39" class="node">
<title>UserDisplayComponent </title>
<polygon fill="#fb8072" stroke="#000000" points="4136.3059,-122 3981.6941,-122 3981.6941,-86 4136.3059,-86 4136.3059,-122"/>
<text text-anchor="middle" x="4059" y="-99.8" font-family="Times,serif" font-size="14.00" fill="#000000">UserDisplayComponent </text>
</g>
<!-- UserModule&#45;&gt;UserDisplayComponent  -->
<g id="edge42" class="edge">
<title>UserModule&#45;&gt;UserDisplayComponent </title>
<path fill="none" stroke="#000000" stroke-dasharray="5,2" d="M4226,-161.8495C4226,-149.7292 4226,-136 4226,-136 4226,-136 4078.8126,-136 4078.8126,-136 4078.8126,-136 4078.8126,-132.2434 4078.8126,-132.2434"/>
<polygon fill="#000000" stroke="#000000" points="4082.3127,-132.2434 4078.8126,-122.2434 4075.3127,-132.2434 4082.3127,-132.2434"/>
</g>
<!-- AppComponent -->
<g id="node5" class="node">
<title>AppComponent</title>
<polygon fill="#ffffb3" stroke="#000000" points="2635.9399,-274 2530.0601,-274 2530.0601,-238 2635.9399,-238 2635.9399,-274"/>
<text text-anchor="middle" x="2583" y="-251.8" font-family="Times,serif" font-size="14.00" fill="#000000">AppComponent</text>
</g>
<!-- AppComponent&#45;&gt;AppModule -->
<g id="edge4" class="edge">
<title>AppComponent&#45;&gt;AppModule</title>
<path fill="none" stroke="#000000" d="M2583,-274.2667C2583,-292.5552 2583,-318 2583,-318 2583,-318 2326.8588,-318 2326.8588,-318"/>
<polygon fill="#000000" stroke="#000000" points="2326.8588,-314.5001 2316.8588,-318 2326.8588,-321.5001 2326.8588,-314.5001"/>
</g>
<!-- FooterComponent -->
<g id="node6" class="node">
<title>FooterComponent</title>
<polygon fill="#ffffb3" stroke="#000000" points="2511.8809,-274 2394.1191,-274 2394.1191,-238 2511.8809,-238 2511.8809,-274"/>
<text text-anchor="middle" x="2453" y="-251.8" font-family="Times,serif" font-size="14.00" fill="#000000">FooterComponent</text>
</g>
<!-- FooterComponent&#45;&gt;AppModule -->
<g id="edge5" class="edge">
<title>FooterComponent&#45;&gt;AppModule</title>
<path fill="none" stroke="#000000" d="M2453,-274.0091C2453,-290.0494 2453,-311 2453,-311 2453,-311 2326.7331,-311 2326.7331,-311"/>
<polygon fill="#000000" stroke="#000000" points="2326.7331,-307.5001 2316.7331,-311 2326.7331,-314.5001 2326.7331,-307.5001"/>
</g>
<!-- HeaderComponent -->
<g id="node7" class="node">
<title>HeaderComponent</title>
<polygon fill="#ffffb3" stroke="#000000" points="2375.7437,-274 2254.2563,-274 2254.2563,-238 2375.7437,-238 2375.7437,-274"/>
<text text-anchor="middle" x="2315" y="-251.8" font-family="Times,serif" font-size="14.00" fill="#000000">HeaderComponent</text>
</g>
<!-- HeaderComponent&#45;&gt;AppModule -->
<g id="edge6" class="edge">
<title>HeaderComponent&#45;&gt;AppModule</title>
<path fill="none" stroke="#000000" d="M2285.4783,-274.1061C2285.4783,-274.1061 2285.4783,-292.991 2285.4783,-292.991"/>
<polygon fill="#000000" stroke="#000000" points="2281.9783,-292.9909 2285.4783,-302.991 2288.9783,-292.991 2281.9783,-292.9909"/>
</g>
<!-- AppComponent  -->
<g id="node14" class="node">
<title>AppComponent </title>
<polygon fill="#80b1d3" stroke="#000000" points="2329.439,-404 2220.561,-404 2220.561,-368 2329.439,-368 2329.439,-404"/>
<text text-anchor="middle" x="2275" y="-381.8" font-family="Times,serif" font-size="14.00" fill="#000000">AppComponent </text>
</g>
<!-- AppModule&#45;&gt;AppComponent  -->
<g id="edge14" class="edge">
<title>AppModule&#45;&gt;AppComponent </title>
<path fill="none" stroke="#000000" stroke-dasharray="1,5" d="M2275,-339.1061C2275,-339.1061 2275,-357.991 2275,-357.991"/>
<polygon fill="#000000" stroke="#000000" points="2271.5001,-357.9909 2275,-367.991 2278.5001,-357.991 2271.5001,-357.9909"/>
</g>
<!-- AppRoutingModule -->
<g id="node9" class="node">
<title>AppRoutingModule</title>
<polygon fill="#8dd3c7" stroke="#000000" points="2230.2744,-122 2227.2744,-126 2206.2744,-126 2203.2744,-122 2101.7256,-122 2101.7256,-86 2230.2744,-86 2230.2744,-122"/>
<text text-anchor="middle" x="2166" y="-99.8" font-family="Times,serif" font-size="14.00" fill="#000000">AppRoutingModule</text>
</g>
<!-- AppRoutingModule&#45;&gt;AppModule -->
<g id="edge8" class="edge">
<title>AppRoutingModule&#45;&gt;AppModule</title>
<path fill="none" stroke="#000000" d="M2225.4588,-122.0948C2225.4588,-172.6999 2225.4588,-312 2225.4588,-312 2225.4588,-312 2226.2329,-312 2226.2329,-312"/>
<polygon fill="#000000" stroke="#000000" points="2223.1997,-315.5001 2233.1996,-312 2223.1996,-308.5001 2223.1997,-315.5001"/>
</g>
<!-- CoreModule -->
<g id="node10" class="node">
<title>CoreModule</title>
<polygon fill="#8dd3c7" stroke="#000000" points="2073.2619,-198 2070.2619,-202 2049.2619,-202 2046.2619,-198 1986.7381,-198 1986.7381,-162 2073.2619,-162 2073.2619,-198"/>
<text text-anchor="middle" x="2030" y="-175.8" font-family="Times,serif" font-size="14.00" fill="#000000">CoreModule</text>
</g>
<!-- CoreModule&#45;&gt;AppModule -->
<g id="edge9" class="edge">
<title>CoreModule&#45;&gt;AppModule</title>
<path fill="none" stroke="#000000" d="M2073.3794,-186C2075.8914,-186 2077.4226,-186 2077.4226,-186 2077.4226,-186 2077.4226,-330 2077.4226,-330 2077.4226,-330 2223.0989,-330 2223.0989,-330"/>
<polygon fill="#000000" stroke="#000000" points="2223.099,-333.5001 2233.0989,-330 2223.0989,-326.5001 2223.099,-333.5001"/>
</g>
<!-- HomeModule -->
<g id="node11" class="node">
<title>HomeModule</title>
<polygon fill="#8dd3c7" stroke="#000000" points="2070.7619,-274 2067.7619,-278 2046.7619,-278 2043.7619,-274 1977.2381,-274 1977.2381,-238 2070.7619,-238 2070.7619,-274"/>
<text text-anchor="middle" x="2024" y="-251.8" font-family="Times,serif" font-size="14.00" fill="#000000">HomeModule</text>
</g>
<!-- HomeModule&#45;&gt;AppModule -->
<g id="edge10" class="edge">
<title>HomeModule&#45;&gt;AppModule</title>
<path fill="none" stroke="#000000" d="M2070.9029,-262C2134.4765,-262 2240.1573,-262 2240.1573,-262 2240.1573,-262 2240.1573,-292.9775 2240.1573,-292.9775"/>
<polygon fill="#000000" stroke="#000000" points="2236.6574,-292.9774 2240.1573,-302.9775 2243.6574,-292.9775 2236.6574,-292.9774"/>
</g>
<!-- MaterialModule -->
<g id="node12" class="node">
<title>MaterialModule</title>
<polygon fill="#8dd3c7" stroke="#000000" points="2083.4706,-122 2080.4706,-126 2059.4706,-126 2056.4706,-122 1976.5294,-122 1976.5294,-86 2083.4706,-86 2083.4706,-122"/>
<text text-anchor="middle" x="2030" y="-99.8" font-family="Times,serif" font-size="14.00" fill="#000000">MaterialModule</text>
</g>
<!-- MaterialModule&#45;&gt;UserModule -->
<g id="edge40" class="edge">
<title>MaterialModule&#45;&gt;UserModule</title>
<path fill="none" stroke="#000000" d="M2075.4017,-122.0439C2075.4017,-134.5633 2075.4017,-149 2075.4017,-149 2075.4017,-149 4204.506,-149 4204.506,-149 4204.506,-149 4204.506,-151.9672 4204.506,-151.9672"/>
<polygon fill="#000000" stroke="#000000" points="4201.006,-151.9671 4204.506,-161.9672 4208.006,-151.9672 4201.006,-151.9671"/>
</g>
<!-- MaterialModule&#45;&gt;AppModule -->
<g id="edge11" class="edge">
<title>MaterialModule&#45;&gt;AppModule</title>
<path fill="none" stroke="#000000" d="M2079.4435,-122.1281C2079.4435,-174.2818 2079.4435,-321 2079.4435,-321 2079.4435,-321 2223.0482,-321 2223.0482,-321"/>
<polygon fill="#000000" stroke="#000000" points="2223.0483,-324.5001 2233.0482,-321 2223.0482,-317.5001 2223.0483,-324.5001"/>
</g>
<!-- MaterialModule&#45;&gt;CoreModule -->
<g id="edge16" class="edge">
<title>MaterialModule&#45;&gt;CoreModule</title>
<path fill="none" stroke="#000000" d="M2030,-122.0109C2030,-122.0109 2030,-151.855 2030,-151.855"/>
<polygon fill="#000000" stroke="#000000" points="2026.5001,-151.8549 2030,-161.855 2033.5001,-151.855 2026.5001,-151.8549"/>
</g>
<!-- SharedModule -->
<g id="node13" class="node">
<title>SharedModule</title>
<polygon fill="#8dd3c7" stroke="#000000" points="2196.4231,-198 2193.4231,-202 2172.4231,-202 2169.4231,-198 2097.5769,-198 2097.5769,-162 2196.4231,-162 2196.4231,-198"/>
<text text-anchor="middle" x="2147" y="-175.8" font-family="Times,serif" font-size="14.00" fill="#000000">SharedModule</text>
</g>
<!-- MaterialModule&#45;&gt;SharedModule -->
<g id="edge34" class="edge">
<title>MaterialModule&#45;&gt;SharedModule</title>
<path fill="none" stroke="#000000" d="M2081.4644,-122.0267C2081.4644,-142.7672 2081.4644,-174 2081.4644,-174 2081.4644,-174 2087.6642,-174 2087.6642,-174"/>
<polygon fill="#000000" stroke="#000000" points="2087.6643,-177.5001 2097.6642,-174 2087.6642,-170.5001 2087.6643,-177.5001"/>
</g>
<!-- SharedModule&#45;&gt;AppModule -->
<g id="edge12" class="edge">
<title>SharedModule&#45;&gt;AppModule</title>
<path fill="none" stroke="#000000" d="M2196.4846,-195C2221.7144,-195 2247.1428,-195 2247.1428,-195 2247.1428,-195 2247.1428,-292.9473 2247.1428,-292.9473"/>
<polygon fill="#000000" stroke="#000000" points="2243.6429,-292.9472 2247.1428,-302.9473 2250.6429,-292.9473 2243.6429,-292.9472"/>
</g>
<!-- SharedModule&#45;&gt;HomeModule -->
<g id="edge29" class="edge">
<title>SharedModule&#45;&gt;HomeModule</title>
<path fill="none" stroke="#000000" d="M2147,-198.0267C2147,-218.7672 2147,-250 2147,-250 2147,-250 2080.8519,-250 2080.8519,-250"/>
<polygon fill="#000000" stroke="#000000" points="2080.8519,-246.5001 2070.8519,-250 2080.8519,-253.5001 2080.8519,-246.5001"/>
</g>
<!-- LoginComponent  -->
<g id="node33" class="node">
<title>LoginComponent </title>
<polygon fill="#fb8072" stroke="#000000" points="2950.2759,-274 2831.7241,-274 2831.7241,-238 2950.2759,-238 2950.2759,-274"/>
<text text-anchor="middle" x="2891" y="-251.8" font-family="Times,serif" font-size="14.00" fill="#000000">LoginComponent </text>
</g>
<!-- SharedModule&#45;&gt;LoginComponent  -->
<g id="edge35" class="edge">
<title>SharedModule&#45;&gt;LoginComponent </title>
<path fill="none" stroke="#000000" stroke-dasharray="5,2" d="M2196.3921,-188C2362.5613,-188 2891,-188 2891,-188 2891,-188 2891,-227.7772 2891,-227.7772"/>
<polygon fill="#000000" stroke="#000000" points="2887.5001,-227.7772 2891,-237.7772 2894.5001,-227.7773 2887.5001,-227.7772"/>
</g>
<!-- NavMainComponent  -->
<g id="node34" class="node">
<title>NavMainComponent </title>
<polygon fill="#fb8072" stroke="#000000" points="2813.7037,-274 2676.2963,-274 2676.2963,-238 2813.7037,-238 2813.7037,-274"/>
<text text-anchor="middle" x="2745" y="-251.8" font-family="Times,serif" font-size="14.00" fill="#000000">NavMainComponent </text>
</g>
<!-- SharedModule&#45;&gt;NavMainComponent  -->
<g id="edge36" class="edge">
<title>SharedModule&#45;&gt;NavMainComponent </title>
<path fill="none" stroke="#000000" stroke-dasharray="5,2" d="M2196.4456,-191C2339.7188,-191 2745,-191 2745,-191 2745,-191 2745,-227.8939 2745,-227.8939"/>
<polygon fill="#000000" stroke="#000000" points="2741.5001,-227.8938 2745,-237.8939 2748.5001,-227.8939 2741.5001,-227.8938"/>
</g>
<!-- PasswordComponent  -->
<g id="node35" class="node">
<title>PasswordComponent </title>
<polygon fill="#fb8072" stroke="#000000" points="3252.4869,-274 3113.5131,-274 3113.5131,-238 3252.4869,-238 3252.4869,-274"/>
<text text-anchor="middle" x="3183" y="-251.8" font-family="Times,serif" font-size="14.00" fill="#000000">PasswordComponent </text>
</g>
<!-- SharedModule&#45;&gt;PasswordComponent  -->
<g id="edge37" class="edge">
<title>SharedModule&#45;&gt;PasswordComponent </title>
<path fill="none" stroke="#000000" stroke-dasharray="5,2" d="M2196.2715,-180C2402.1576,-180 3183,-180 3183,-180 3183,-180 3183,-227.9891 3183,-227.9891"/>
<polygon fill="#000000" stroke="#000000" points="3179.5001,-227.989 3183,-237.9891 3186.5001,-227.9891 3179.5001,-227.989"/>
</g>
<!-- SignUpComponent  -->
<g id="node36" class="node">
<title>SignUpComponent </title>
<polygon fill="#fb8072" stroke="#000000" points="3095.6128,-274 2968.3872,-274 2968.3872,-238 3095.6128,-238 3095.6128,-274"/>
<text text-anchor="middle" x="3032" y="-251.8" font-family="Times,serif" font-size="14.00" fill="#000000">SignUpComponent </text>
</g>
<!-- SharedModule&#45;&gt;SignUpComponent  -->
<g id="edge38" class="edge">
<title>SharedModule&#45;&gt;SignUpComponent </title>
<path fill="none" stroke="#000000" stroke-dasharray="5,2" d="M2196.4778,-184C2382.8538,-184 3032,-184 3032,-184 3032,-184 3032,-227.8314 3032,-227.8314"/>
<polygon fill="#000000" stroke="#000000" points="3028.5001,-227.8313 3032,-237.8314 3035.5001,-227.8314 3028.5001,-227.8313"/>
</g>
<!-- BusinessComponent -->
<g id="node15" class="node">
<title>BusinessComponent</title>
<polygon fill="#ffffb3" stroke="#000000" points="4639.608,-122 4508.392,-122 4508.392,-86 4639.608,-86 4639.608,-122"/>
<text text-anchor="middle" x="4574" y="-99.8" font-family="Times,serif" font-size="14.00" fill="#000000">BusinessComponent</text>
</g>
<!-- BusinessModule -->
<g id="node16" class="node">
<title>BusinessModule</title>
<polygon fill="#8dd3c7" stroke="#000000" points="4628.8259,-198 4625.8259,-202 4604.8259,-202 4601.8259,-198 4519.1741,-198 4519.1741,-162 4628.8259,-162 4628.8259,-198"/>
<text text-anchor="middle" x="4574" y="-175.8" font-family="Times,serif" font-size="14.00" fill="#000000">BusinessModule</text>
</g>
<!-- BusinessComponent&#45;&gt;BusinessModule -->
<g id="edge15" class="edge">
<title>BusinessComponent&#45;&gt;BusinessModule</title>
<path fill="none" stroke="#000000" d="M4574,-122.0109C4574,-122.0109 4574,-151.855 4574,-151.855"/>
<polygon fill="#000000" stroke="#000000" points="4570.5001,-151.8549 4574,-161.855 4577.5001,-151.855 4570.5001,-151.8549"/>
</g>
<!-- HttpErrorInterceptor -->
<g id="node17" class="node">
<title>HttpErrorInterceptor</title>
<ellipse fill="#fdb462" stroke="#000000" cx="1846" cy="-104" rx="90.8665" ry="18"/>
<text text-anchor="middle" x="1846" y="-99.8" font-family="Times,serif" font-size="14.00" fill="#000000">HttpErrorInterceptor</text>
</g>
<!-- HttpErrorInterceptor&#45;&gt;CoreModule -->
<g id="edge17" class="edge">
<title>HttpErrorInterceptor&#45;&gt;CoreModule</title>
<path fill="none" stroke="#000000" d="M1937.1367,-104C1948.915,-104 1956.9772,-104 1956.9772,-104 1956.9772,-104 1956.9772,-174 1956.9772,-174 1956.9772,-174 1976.6784,-174 1976.6784,-174"/>
<polygon fill="#000000" stroke="#000000" points="1976.6784,-177.5001 1986.6784,-174 1976.6783,-170.5001 1976.6784,-177.5001"/>
</g>
<!-- AboutComponent -->
<g id="node18" class="node">
<title>AboutComponent</title>
<polygon fill="#ffffb3" stroke="#000000" points="760.3301,-198 643.6699,-198 643.6699,-162 760.3301,-162 760.3301,-198"/>
<text text-anchor="middle" x="702" y="-175.8" font-family="Times,serif" font-size="14.00" fill="#000000">AboutComponent</text>
</g>
<!-- AboutComponent&#45;&gt;HomeModule -->
<g id="edge18" class="edge">
<title>AboutComponent&#45;&gt;HomeModule</title>
<path fill="none" stroke="#000000" d="M702,-198.3802C702,-222.2785 702,-261 702,-261 702,-261 1966.9493,-261 1966.9493,-261"/>
<polygon fill="#000000" stroke="#000000" points="1966.9494,-264.5001 1976.9493,-261 1966.9493,-257.5001 1966.9494,-264.5001"/>
</g>
<!-- BusinessOwnerRegistrationComponent -->
<g id="node19" class="node">
<title>BusinessOwnerRegistrationComponent</title>
<polygon fill="#ffffb3" stroke="#000000" points="625.6301,-198 388.3699,-198 388.3699,-162 625.6301,-162 625.6301,-198"/>
<text text-anchor="middle" x="507" y="-175.8" font-family="Times,serif" font-size="14.00" fill="#000000">BusinessOwnerRegistrationComponent</text>
</g>
<!-- BusinessOwnerRegistrationComponent&#45;&gt;HomeModule -->
<g id="edge19" class="edge">
<title>BusinessOwnerRegistrationComponent&#45;&gt;HomeModule</title>
<path fill="none" stroke="#000000" d="M507,-198.0263C507,-222.9773 507,-265 507,-265 507,-265 1966.9357,-265 1966.9357,-265"/>
<polygon fill="#000000" stroke="#000000" points="1966.9358,-268.5001 1976.9357,-265 1966.9357,-261.5001 1966.9358,-268.5001"/>
</g>
<!-- ClientRegistrationComponent -->
<g id="node20" class="node">
<title>ClientRegistrationComponent</title>
<polygon fill="#ffffb3" stroke="#000000" points="369.9888,-198 186.0112,-198 186.0112,-162 369.9888,-162 369.9888,-198"/>
<text text-anchor="middle" x="278" y="-175.8" font-family="Times,serif" font-size="14.00" fill="#000000">ClientRegistrationComponent</text>
</g>
<!-- ClientRegistrationComponent&#45;&gt;HomeModule -->
<g id="edge20" class="edge">
<title>ClientRegistrationComponent&#45;&gt;HomeModule</title>
<path fill="none" stroke="#000000" d="M278,-198.2337C278,-224.0094 278,-268 278,-268 278,-268 1966.847,-268 1966.847,-268"/>
<polygon fill="#000000" stroke="#000000" points="1966.847,-271.5001 1976.847,-268 1966.8469,-264.5001 1966.847,-271.5001"/>
</g>
<!-- ContactComponent -->
<g id="node21" class="node">
<title>ContactComponent</title>
<polygon fill="#ffffb3" stroke="#000000" points="1937.3795,-198 1812.6205,-198 1812.6205,-162 1937.3795,-162 1937.3795,-198"/>
<text text-anchor="middle" x="1875" y="-175.8" font-family="Times,serif" font-size="14.00" fill="#000000">ContactComponent</text>
</g>
<!-- ContactComponent&#45;&gt;HomeModule -->
<g id="edge21" class="edge">
<title>ContactComponent&#45;&gt;HomeModule</title>
<path fill="none" stroke="#000000" d="M1937.4755,-186C1960.8622,-186 1981.8692,-186 1981.8692,-186 1981.8692,-186 1981.8692,-227.9733 1981.8692,-227.9733"/>
<polygon fill="#000000" stroke="#000000" points="1978.3693,-227.9732 1981.8692,-237.9733 1985.3693,-227.9733 1978.3693,-227.9732"/>
</g>
<!-- FirstStepRegComponent -->
<g id="node22" class="node">
<title>FirstStepRegComponent</title>
<polygon fill="#ffffb3" stroke="#000000" points="1794.441,-198 1639.559,-198 1639.559,-162 1794.441,-162 1794.441,-198"/>
<text text-anchor="middle" x="1717" y="-175.8" font-family="Times,serif" font-size="14.00" fill="#000000">FirstStepRegComponent</text>
</g>
<!-- FirstStepRegComponent&#45;&gt;HomeModule -->
<g id="edge22" class="edge">
<title>FirstStepRegComponent&#45;&gt;HomeModule</title>
<path fill="none" stroke="#000000" d="M1717,-198.2667C1717,-216.5552 1717,-242 1717,-242 1717,-242 1967.0391,-242 1967.0391,-242"/>
<polygon fill="#000000" stroke="#000000" points="1967.0392,-245.5001 1977.0391,-242 1967.0391,-238.5001 1967.0392,-245.5001"/>
</g>
<!-- HomeComponent -->
<g id="node23" class="node">
<title>HomeComponent</title>
<polygon fill="#ffffb3" stroke="#000000" points="1621.5451,-198 1506.4549,-198 1506.4549,-162 1621.5451,-162 1621.5451,-198"/>
<text text-anchor="middle" x="1564" y="-175.8" font-family="Times,serif" font-size="14.00" fill="#000000">HomeComponent</text>
</g>
<!-- HomeComponent&#45;&gt;HomeModule -->
<g id="edge23" class="edge">
<title>HomeComponent&#45;&gt;HomeModule</title>
<path fill="none" stroke="#000000" d="M1564,-198.1061C1564,-217.3391 1564,-245 1564,-245 1564,-245 1966.9337,-245 1966.9337,-245"/>
<polygon fill="#000000" stroke="#000000" points="1966.9337,-248.5001 1976.9337,-245 1966.9337,-241.5001 1966.9337,-248.5001"/>
</g>
<!-- HomeLoginComponent -->
<g id="node24" class="node">
<title>HomeLoginComponent</title>
<polygon fill="#ffffb3" stroke="#000000" points="1488.4874,-198 1339.5126,-198 1339.5126,-162 1488.4874,-162 1488.4874,-198"/>
<text text-anchor="middle" x="1414" y="-175.8" font-family="Times,serif" font-size="14.00" fill="#000000">HomeLoginComponent</text>
</g>
<!-- HomeLoginComponent&#45;&gt;HomeModule -->
<g id="edge24" class="edge">
<title>HomeLoginComponent&#45;&gt;HomeModule</title>
<path fill="none" stroke="#000000" d="M1414,-198.2228C1414,-218.3652 1414,-248 1414,-248 1414,-248 1967.1472,-248 1967.1472,-248"/>
<polygon fill="#000000" stroke="#000000" points="1967.1472,-251.5001 1977.1472,-248 1967.1472,-244.5001 1967.1472,-251.5001"/>
</g>
<!-- HomeRegistrationComponent -->
<g id="node25" class="node">
<title>HomeRegistrationComponent</title>
<polygon fill="#ffffb3" stroke="#000000" points="1321.9776,-198 1138.0224,-198 1138.0224,-162 1321.9776,-162 1321.9776,-198"/>
<text text-anchor="middle" x="1230" y="-175.8" font-family="Times,serif" font-size="14.00" fill="#000000">HomeRegistrationComponent</text>
</g>
<!-- HomeRegistrationComponent&#45;&gt;HomeModule -->
<g id="edge25" class="edge">
<title>HomeRegistrationComponent&#45;&gt;HomeModule</title>
<path fill="none" stroke="#000000" d="M1230,-198.1686C1230,-219.498 1230,-252 1230,-252 1230,-252 1967.0031,-252 1967.0031,-252"/>
<polygon fill="#000000" stroke="#000000" points="1967.0032,-255.5001 1977.0031,-252 1967.0031,-248.5001 1967.0032,-255.5001"/>
</g>
<!-- HomeSignUpComponent -->
<g id="node26" class="node">
<title>HomeSignUpComponent</title>
<polygon fill="#ffffb3" stroke="#000000" points="1120.3243,-198 961.6757,-198 961.6757,-162 1120.3243,-162 1120.3243,-198"/>
<text text-anchor="middle" x="1041" y="-175.8" font-family="Times,serif" font-size="14.00" fill="#000000">HomeSignUpComponent</text>
</g>
<!-- HomeSignUpComponent&#45;&gt;HomeModule -->
<g id="edge26" class="edge">
<title>HomeSignUpComponent&#45;&gt;HomeModule</title>
<path fill="none" stroke="#000000" d="M1041,-198.1554C1041,-220.3519 1041,-255 1041,-255 1041,-255 1966.919,-255 1966.919,-255"/>
<polygon fill="#000000" stroke="#000000" points="1966.9191,-258.5001 1976.919,-255 1966.919,-251.5001 1966.9191,-258.5001"/>
</g>
<!-- PageNotFoundComponent -->
<g id="node27" class="node">
<title>PageNotFoundComponent</title>
<polygon fill="#ffffb3" stroke="#000000" points="943.8243,-198 778.1757,-198 778.1757,-162 943.8243,-162 943.8243,-198"/>
<text text-anchor="middle" x="861" y="-175.8" font-family="Times,serif" font-size="14.00" fill="#000000">PageNotFoundComponent</text>
</g>
<!-- PageNotFoundComponent&#45;&gt;HomeModule -->
<g id="edge27" class="edge">
<title>PageNotFoundComponent&#45;&gt;HomeModule</title>
<path fill="none" stroke="#000000" d="M861,-198.0908C861,-221.1328 861,-258 861,-258 861,-258 1966.9686,-258 1966.9686,-258"/>
<polygon fill="#000000" stroke="#000000" points="1966.9686,-261.5001 1976.9686,-258 1966.9686,-254.5001 1966.9686,-261.5001"/>
</g>
<!-- HomeRoutingModule -->
<g id="node28" class="node">
<title>HomeRoutingModule</title>
<polygon fill="#8dd3c7" stroke="#000000" points="162.3795,-198 159.3795,-202 138.3795,-202 135.3795,-198 23.6205,-198 23.6205,-162 162.3795,-162 162.3795,-198"/>
<text text-anchor="middle" x="93" y="-175.8" font-family="Times,serif" font-size="14.00" fill="#000000">HomeRoutingModule</text>
</g>
<!-- HomeRoutingModule&#45;&gt;HomeModule -->
<g id="edge28" class="edge">
<title>HomeRoutingModule&#45;&gt;HomeModule</title>
<path fill="none" stroke="#000000" d="M93,-198.4152C93,-225.0057 93,-271 93,-271 93,-271 1967.2239,-271 1967.2239,-271"/>
<polygon fill="#000000" stroke="#000000" points="1967.224,-274.5001 1977.2239,-271 1967.2239,-267.5001 1967.224,-274.5001"/>
</g>
<!-- LoginComponent -->
<g id="node29" class="node">
<title>LoginComponent</title>
<polygon fill="#ffffb3" stroke="#000000" points="3542.2758,-274 3427.7242,-274 3427.7242,-238 3542.2758,-238 3542.2758,-274"/>
<text text-anchor="middle" x="3485" y="-251.8" font-family="Times,serif" font-size="14.00" fill="#000000">LoginComponent</text>
</g>
<!-- LoginComponent&#45;&gt;SharedModule -->
<g id="edge30" class="edge">
<title>LoginComponent&#45;&gt;SharedModule</title>
<path fill="none" stroke="#000000" d="M3485,-237.9902C3485,-213.5793 3485,-173 3485,-173 3485,-173 2206.6073,-173 2206.6073,-173"/>
<polygon fill="#000000" stroke="#000000" points="2206.6074,-169.5001 2196.6073,-173 2206.6073,-176.5001 2206.6074,-169.5001"/>
</g>
<!-- NavMainComponent -->
<g id="node30" class="node">
<title>NavMainComponent</title>
<polygon fill="#ffffb3" stroke="#000000" points="3410.2036,-274 3275.7964,-274 3275.7964,-238 3410.2036,-238 3410.2036,-274"/>
<text text-anchor="middle" x="3343" y="-251.8" font-family="Times,serif" font-size="14.00" fill="#000000">NavMainComponent</text>
</g>
<!-- NavMainComponent&#45;&gt;SharedModule -->
<g id="edge31" class="edge">
<title>NavMainComponent&#45;&gt;SharedModule</title>
<path fill="none" stroke="#000000" d="M3343,-237.6772C3343,-214.3398 3343,-177 3343,-177 3343,-177 2206.4905,-177 2206.4905,-177"/>
<polygon fill="#000000" stroke="#000000" points="2206.4905,-173.5001 2196.4905,-177 2206.4905,-180.5001 2206.4905,-173.5001"/>
</g>
<!-- PasswordComponent -->
<g id="node31" class="node">
<title>PasswordComponent</title>
<polygon fill="#ffffb3" stroke="#000000" points="3837.486,-274 3702.514,-274 3702.514,-238 3837.486,-238 3837.486,-274"/>
<text text-anchor="middle" x="3770" y="-251.8" font-family="Times,serif" font-size="14.00" fill="#000000">PasswordComponent</text>
</g>
<!-- PasswordComponent&#45;&gt;SharedModule -->
<g id="edge32" class="edge">
<title>PasswordComponent&#45;&gt;SharedModule</title>
<path fill="none" stroke="#000000" d="M3770,-237.7872C3770,-211.4889 3770,-166 3770,-166 3770,-166 2206.4594,-166 2206.4594,-166"/>
<polygon fill="#000000" stroke="#000000" points="2206.4594,-162.5001 2196.4594,-166 2206.4593,-169.5001 2206.4594,-162.5001"/>
</g>
<!-- SignUpComponent -->
<g id="node32" class="node">
<title>SignUpComponent</title>
<polygon fill="#ffffb3" stroke="#000000" points="3684.1123,-274 3559.8877,-274 3559.8877,-238 3684.1123,-238 3684.1123,-274"/>
<text text-anchor="middle" x="3622" y="-251.8" font-family="Times,serif" font-size="14.00" fill="#000000">SignUpComponent</text>
</g>
<!-- SignUpComponent&#45;&gt;SharedModule -->
<g id="edge33" class="edge">
<title>SignUpComponent&#45;&gt;SharedModule</title>
<path fill="none" stroke="#000000" d="M3622,-237.7616C3622,-212.5171 3622,-170 3622,-170 3622,-170 2206.4977,-170 2206.4977,-170"/>
<polygon fill="#000000" stroke="#000000" points="2206.4977,-166.5001 2196.4977,-170 2206.4976,-173.5001 2206.4977,-166.5001"/>
</g>
<!-- UserDisplayComponent -->
<g id="node37" class="node">
<title>UserDisplayComponent</title>
<polygon fill="#ffffb3" stroke="#000000" points="4467.8061,-122 4316.1939,-122 4316.1939,-86 4467.8061,-86 4467.8061,-122"/>
<text text-anchor="middle" x="4392" y="-99.8" font-family="Times,serif" font-size="14.00" fill="#000000">UserDisplayComponent</text>
</g>
<!-- UserDisplayComponent&#45;&gt;UserModule -->
<g id="edge39" class="edge">
<title>UserDisplayComponent&#45;&gt;UserModule</title>
<path fill="none" stroke="#000000" d="M4392,-122.0109C4392,-144.4852 4392,-180 4392,-180 4392,-180 4279.1812,-180 4279.1812,-180"/>
<polygon fill="#000000" stroke="#000000" points="4279.1812,-176.5001 4269.1812,-180 4279.1812,-183.5001 4279.1812,-176.5001"/>
</g>
<!-- UserRoutingModule -->
<g id="node38" class="node">
<title>UserRoutingModule</title>
<polygon fill="#8dd3c7" stroke="#000000" points="4291.594,-122 4288.594,-126 4267.594,-126 4264.594,-122 4160.406,-122 4160.406,-86 4291.594,-86 4291.594,-122"/>
<text text-anchor="middle" x="4226" y="-99.8" font-family="Times,serif" font-size="14.00" fill="#000000">UserRoutingModule</text>
</g>
<!-- UserRoutingModule&#45;&gt;UserModule -->
<g id="edge41" class="edge">
<title>UserRoutingModule&#45;&gt;UserModule</title>
<path fill="none" stroke="#000000" d="M4247.4941,-122.0109C4247.4941,-122.0109 4247.4941,-151.855 4247.4941,-151.855"/>
<polygon fill="#000000" stroke="#000000" points="4243.9941,-151.8549 4247.4941,-161.855 4250.9941,-151.855 4243.9941,-151.8549"/>
</g>
</g>
</svg>
